<?xml version="1.0" standalone="no"?>
<!DOCTYPE svg PUBLIC "-//W3C//DTD SVG 20010904//EN"
 "http://www.w3.org/TR/2001/REC-SVG-20010904/DTD/svg10.dtd">
<svg version="1.0" xmlns="http://www.w3.org/2000/svg"
 width="1115.000000pt" height="1115.000000pt" viewBox="0 0 1115.000000 1115.000000"
 preserveAspectRatio="xMidYMid meet">
<metadata>
Created by potrace 1.14, written by Peter Selinger 2001-2017
</metadata>
<g transform="translate(0.000000,1115.000000) scale(0.100000,-0.100000)"
fill="#000000" stroke="none">
<path d="M5625 11109 c-266 -79 -515 -209 -740 -388 -93 -73 -326 -306 -406
-406 -115 -143 -319 -446 -319 -473 0 -7 -3 -12 -7 -12 -5 0 -13 -10 -19 -23
-6 -12 -40 -80 -77 -152 -78 -155 -110 -225 -167 -365 -39 -97 -126 -335 -135
-370 -15 -59 -34 -120 -38 -127 -11 -17 -95 -366 -116 -478 -26 -138 -28 -150
-36 -221 -4 -33 -9 -66 -10 -74 -12 -66 -20 -255 -20 -465 0 -253 7 -373 30
-515 3 -19 7 -48 9 -65 7 -50 54 -267 70 -317 8 -27 11 -48 6 -48 -15 0 -75
62 -107 110 -50 75 -102 224 -117 335 -3 22 -8 54 -11 70 -9 44 -13 125 -14
255 l-1 115 -70 -107 c-38 -59 -70 -110 -70 -114 0 -4 -6 -15 -14 -23 -13 -15
-144 -271 -179 -351 -41 -94 -134 -345 -154 -415 -1 -5 -10 -35 -19 -65 -23
-77 -82 -305 -88 -338 -2 -15 -14 -72 -26 -127 -11 -55 -23 -120 -26 -145 -3
-24 -7 -47 -9 -50 -2 -3 -6 -34 -10 -70 -4 -36 -8 -67 -10 -70 -2 -3 -6 -41
-10 -85 -3 -44 -8 -87 -10 -95 -4 -14 -7 -57 -20 -235 -3 -38 -8 -121 -10
-183 l-5 -113 -38 -31 c-49 -41 -252 -248 -252 -258 0 -4 -10 -18 -21 -31 -55
-62 -192 -298 -214 -370 -4 -13 -16 -42 -26 -64 -20 -44 -63 -198 -79 -285
-19 -98 -25 -192 -23 -345 1 -154 13 -250 45 -370 5 -22 11 -47 13 -55 17 -86
116 -315 179 -415 20 -30 36 -60 36 -65 0 -6 5 -10 10 -10 6 0 10 -6 10 -14 0
-8 3 -16 7 -18 5 -1 28 -30 53 -63 52 -69 202 -223 274 -281 121 -98 281 -193
421 -250 44 -18 83 -39 87 -46 3 -7 16 -35 28 -63 12 -27 29 -66 37 -85 79
-179 296 -566 325 -578 5 -2 8 -8 8 -13 0 -5 21 -37 46 -71 200 -275 408 -490
639 -661 61 -45 120 -88 130 -94 332 -208 593 -307 955 -359 98 -14 521 -7
548 10 4 2 30 7 57 10 155 21 416 109 600 203 136 70 319 188 421 273 17 14
52 43 79 65 62 51 232 220 307 305 233 267 458 632 599 971 40 95 41 97 87
114 46 18 239 113 276 138 248 159 427 340 568 572 113 186 200 417 225 600 3
22 9 60 13 85 5 25 7 131 5 235 -3 180 -10 237 -50 400 -24 100 -95 279 -148
375 -35 62 -117 192 -127 200 -3 3 -19 23 -36 45 -52 72 -171 194 -254 261
-19 16 -44 37 -54 46 -11 10 -24 18 -29 18 -8 0 -5 37 8 108 1 10 6 46 10 82
3 36 9 79 12 95 8 43 12 645 4 645 -3 0 -6 14 -5 31 0 16 -3 51 -7 77 -4 26
-10 70 -13 97 -15 137 -80 414 -136 585 -122 368 -280 658 -529 973 -23 30
-251 258 -285 286 -58 47 -190 141 -198 141 -9 0 -1 -37 12 -55 13 -19 77
-218 97 -299 12 -53 24 -114 29 -151 3 -22 9 -56 13 -76 17 -78 13 -321 -8
-424 -29 -152 -82 -290 -140 -364 -17 -23 -18 -18 -16 205 1 126 -2 263 -7
304 -5 41 -10 91 -12 111 -2 19 -9 60 -15 90 -6 30 -13 63 -15 74 -22 105 -85
277 -141 381 -88 165 -273 406 -446 583 -25 26 -83 103 -98 131 -54 101 -73
146 -95 224 -15 49 -28 107 -31 130 -3 22 -8 59 -11 81 -12 68 -6 275 11 390
8 61 17 121 19 135 5 37 55 231 63 243 14 22 -115 -75 -167 -127 -155 -152
-236 -311 -286 -561 -25 -124 -24 -441 1 -580 3 -16 12 -68 21 -115 32 -175
118 -471 165 -570 10 -19 15 -37 12 -40 -5 -5 -125 118 -176 180 -40 48 -117
156 -117 163 0 3 -13 26 -30 50 -86 128 -216 464 -246 637 -3 14 -9 39 -14 55
-5 17 -14 64 -20 105 -6 41 -13 86 -16 100 -25 155 -33 282 -34 565 0 247 6
380 25 530 3 22 7 60 9 85 3 39 10 88 31 235 3 17 12 68 20 115 9 47 18 99 20
115 3 17 14 71 25 120 11 50 23 101 26 115 3 14 14 59 25 102 10 42 19 79 19
82 0 12 -47 4 -145 -25z m1935 -6351 c14 -4 59 -15 100 -24 41 -9 79 -21 85
-26 5 -4 16 -8 26 -8 9 0 47 -14 84 -31 346 -157 591 -450 690 -824 39 -149
42 -410 5 -550 -6 -22 -13 -50 -16 -63 -27 -126 -161 -372 -268 -491 -65 -71
-189 -182 -230 -203 -12 -6 -23 -14 -26 -18 -12 -16 -164 -93 -241 -121 -125
-46 -257 -67 -422 -67 -78 0 -164 4 -192 8 -27 5 -68 12 -90 15 -115 19 -320
110 -493 219 -23 14 -46 26 -52 26 -5 0 -10 5 -10 10 0 6 -5 10 -10 10 -6 0
-47 22 -91 50 -44 27 -83 50 -86 50 -3 0 -17 8 -31 18 -38 26 -204 96 -287
120 -159 47 -366 67 -512 50 -29 -4 -53 -3 -53 0 0 17 113 166 211 277 87 99
139 157 188 208 31 32 58 63 59 68 5 14 -378 -184 -480 -248 -21 -13 -40 -23
-43 -23 -4 0 -63 -38 -133 -84 -130 -87 -211 -148 -322 -246 -34 -30 -74 -65
-89 -77 -14 -12 -42 -36 -61 -53 -55 -50 -250 -194 -303 -224 -124 -71 -292
-137 -384 -151 -22 -3 -54 -10 -71 -14 -34 -10 -395 -7 -452 4 -421 78 -763
360 -915 755 -63 161 -80 257 -79 450 2 501 318 964 785 1149 31 12 63 24 70
25 8 1 32 8 54 14 22 6 65 14 95 18 30 3 57 8 59 10 8 7 3905 -1 3931 -8z
m-708 -3188 c-3 -8 -31 -56 -62 -106 -180 -288 -409 -509 -662 -638 -96 -50
-253 -106 -333 -121 -116 -21 -279 -26 -388 -12 -271 34 -579 193 -787 407
-78 80 -137 147 -160 180 -14 19 -33 44 -43 56 -26 30 -147 227 -147 239 0 7
420 10 1294 10 1147 0 1293 -2 1288 -15z"/>
<path d="M7234 4415 c-142 -44 -235 -164 -235 -304 0 -293 341 -435 550 -230
121 120 121 318 -1 449 -24 26 -108 84 -108 75 0 -3 -9 -1 -21 6 -30 16 -137
18 -185 4z"/>
<path d="M3688 4354 c-4 -4 -42 -6 -85 -5 l-78 2 1 -246 2 -245 106 -108 105
-107 109 108 108 108 -2 242 c-1 133 -2 244 -3 247 -1 6 -208 3 -233 -4 -9 -2
-18 0 -20 6 -2 5 -7 6 -10 2z"/>
<path d="M7809 3875 c-220 -57 -321 -297 -203 -485 38 -61 78 -96 144 -125 77
-35 237 -24 299 20 42 30 106 103 123 142 26 60 32 163 13 230 -44 150 -226
256 -376 218z"/>
<path d="M6659 3866 c-126 -45 -205 -148 -218 -284 -4 -40 -5 -75 -2 -78 3 -2
6 -11 7 -18 1 -7 11 -33 22 -58 48 -109 157 -183 275 -187 68 -2 177 22 177
40 0 5 6 9 13 9 18 0 91 78 113 120 23 47 44 135 38 168 -19 116 -60 187 -142
246 -26 19 -66 40 -89 45 -56 15 -150 13 -194 -3z"/>
<path d="M2962 3751 c1 -15 -1 -31 -4 -36 -4 -6 -3 -17 2 -24 4 -8 4 -25 0
-40 -4 -14 -4 -35 0 -46 4 -11 4 -29 0 -40 -4 -11 -4 -31 0 -45 4 -14 4 -34 0
-45 -4 -11 -4 -32 1 -47 4 -15 4 -30 -1 -33 -5 -3 -5 -16 -1 -28 8 -22 10 -22
247 -23 l239 -1 72 71 c40 38 76 72 80 75 5 4 21 21 37 38 l29 33 -107 107
-107 107 -245 1 -245 1 3 -25z"/>
<path d="M3929 3670 l-110 -106 109 -109 108 -110 242 -1 c238 0 242 0 242 20
4 143 1 399 -5 404 -3 4 -112 7 -242 7 l-235 0 -109 -105z"/>
<path d="M3635 3365 l-106 -104 -2 -245 -2 -244 215 2 215 1 1 241 0 242 -103
106 c-57 58 -105 106 -108 106 -2 0 -52 -47 -110 -105z"/>
<path d="M7203 3314 c-150 -61 -228 -204 -199 -364 46 -246 369 -341 544 -160
67 70 86 120 87 225 0 79 -3 97 -27 142 -79 154 -250 220 -405 157z"/>
</g>
</svg>
