<svg width="474" height="124" viewBox="0 0 474 124" fill="none" xmlns="http://www.w3.org/2000/svg">

   <!-- <svg width="123" height="109" viewBox="0 0 123 109" fill="none" xmlns="http://www.w3.org/2000/svg"> -->
   <g id="dots">
      <g clip-path="url(#clip0_39_2430)">
      <path d="M89.8213 51.7651C88.9501 51.6697 88.3692 51.2305 88.3692 50.3269C88.3629 49.4359 88.9122 48.8949 89.7961 48.9013C90.6169 48.9013 91.1346 49.4168 91.1788 50.2314C91.2293 51.1351 90.6737 51.6124 89.8213 51.7651Z" fill="#446381"/>
      <path d="M91.0715 17.4312C91.0083 16.6802 90.4843 16.1902 89.7267 16.2347C88.9122 16.2793 88.4071 16.8266 88.4766 17.6603C88.5397 18.4112 89.0637 18.8122 89.8151 18.8822C90.6232 18.7358 91.1409 18.2712 91.0715 17.4312Z" fill="#446381"/>
      <path d="M81.8661 0.146417C81.0454 0.108233 80.5087 0.617357 80.4834 1.44468C80.4645 2.20837 80.957 2.72386 81.702 2.76204C82.5291 2.80659 82.9836 2.27837 83.1099 1.47014C83.0278 0.706453 82.6175 0.184601 81.8661 0.146417Z" fill="#446381"/>
      <path d="M88.5586 9.56513C88.5965 10.3606 89.0953 10.7743 89.8655 10.7234C90.579 10.6788 90.9894 10.227 90.9831 9.50785C90.9831 8.71235 90.5159 8.31141 89.7456 8.2605C88.969 8.34323 88.5207 8.77599 88.5586 9.56513Z" fill="#446381"/>
      <path d="M97.7385 49.054C96.9619 49.0667 96.4947 49.5504 96.501 50.3268C96.5074 51.1096 96.9872 51.5805 97.7638 51.5742C98.5403 51.5678 98.9507 51.0778 99.0139 50.3014C98.9444 49.525 98.5214 49.0477 97.7385 49.054Z" fill="#446381"/>
      <path d="M107.121 33.9204C107.102 33.2649 106.691 32.8385 106.047 32.8385C105.328 32.8385 104.892 33.2967 104.936 34.0222C104.98 34.665 105.429 35.0087 106.136 35.0659C106.685 34.9132 107.14 34.5886 107.121 33.9204Z" fill="#446381"/>
      <path d="M106.142 49.1941C105.416 49.1241 104.955 49.5377 104.905 50.2696C104.86 50.9378 105.265 51.3769 105.909 51.4406C106.641 51.5169 107.039 51.0715 107.165 50.3841C107.127 49.7032 106.792 49.2513 106.142 49.1941Z" fill="#446381"/>
      <path d="M104.961 25.9144C104.968 26.5126 105.366 26.9199 105.946 26.9581C106.609 27.0026 107.051 26.589 107.083 25.9335C107.121 25.2653 106.672 24.9089 106.028 24.7943C105.391 24.8898 104.955 25.2398 104.961 25.9144Z" fill="#446381"/>
      <path d="M104.905 41.9645C104.911 42.6964 105.353 43.1291 106.079 43.1037C106.729 43.0782 107.14 42.6518 107.14 41.99C107.14 41.2517 106.679 40.889 105.972 40.819C105.334 40.9463 104.905 41.2963 104.905 41.9645Z" fill="#446381"/>
      <path d="M97.8397 0.426415C97.1894 0.381866 96.76 0.789165 96.7348 1.44466C96.7158 2.03652 97.1073 2.44382 97.6755 2.482C98.3258 2.52655 98.692 2.11289 98.8057 1.4383C98.7236 0.884626 98.4142 0.464599 97.8397 0.426415Z" fill="#446381"/>
      <path d="M88.6342 1.41286C88.6152 2.132 89.0193 2.57748 89.7328 2.60294C90.4462 2.6284 90.8818 2.2211 90.9134 1.4956C90.945 0.770094 90.5157 0.388251 89.7328 0.267334C89.1393 0.369159 88.6468 0.668269 88.6342 1.41286Z" fill="#446381"/>
      <path d="M96.6653 9.49519C96.6653 10.1507 97.0757 10.5834 97.7197 10.6025C98.4394 10.6153 98.8814 10.1634 98.8498 9.43792C98.8246 8.78878 98.3763 8.44513 97.7323 8.37512C97.0946 8.48967 96.6653 8.8397 96.6653 9.49519Z" fill="#446381"/>
      <path d="M96.6148 17.4884C96.5832 18.2076 96.981 18.6594 97.6944 18.6976C98.4079 18.7358 98.8498 18.3285 98.894 17.6094C98.9382 16.8839 98.5089 16.4957 97.827 16.3811C97.1136 16.4193 96.6527 16.7629 96.6148 17.4884Z" fill="#446381"/>
      <path d="M105.012 17.6793C105.081 18.2584 105.498 18.6339 106.079 18.583C106.717 18.5257 107.114 18.0929 107.032 17.4311C106.963 16.852 106.546 16.5465 105.972 16.5083C105.34 16.6419 104.93 17.0111 105.012 17.6793Z" fill="#446381"/>
      <path d="M106.13 8.60415C105.593 8.55324 105.208 8.79508 105.145 9.36147C105.082 9.96606 105.353 10.367 105.991 10.3988C106.54 10.4243 106.856 10.1252 106.919 9.57149C106.925 9.02418 106.685 8.66143 106.13 8.60415Z" fill="#446381"/>
      <path d="M106.849 1.58464C106.931 1.03733 106.628 0.674577 106.092 0.617301C105.612 0.566389 105.277 0.859135 105.208 1.32371C105.126 1.87738 105.441 2.18922 105.953 2.30377C106.445 2.29741 106.78 2.05558 106.849 1.58464Z" fill="#446381"/>
      <path d="M114.899 34.0349C114.943 33.494 114.704 33.1058 114.142 33.0485C113.535 32.9849 113.144 33.2649 113.119 33.914C113.1 34.4677 113.397 34.7859 113.94 34.8432C114.495 34.8432 114.849 34.595 114.899 34.0349Z" fill="#446381"/>
      <path d="M114.091 41.0863C113.548 41.0481 113.176 41.309 113.125 41.8691C113.074 42.48 113.365 42.8682 114.003 42.881C114.558 42.8937 114.855 42.5819 114.912 41.9518C114.887 41.4872 114.653 41.1181 114.091 41.0863Z" fill="#446381"/>
      <path d="M114.836 17.6603C114.899 17.113 114.596 16.7566 114.047 16.7184C113.561 16.6802 113.239 16.9857 113.182 17.4503C113.119 17.9976 113.441 18.3094 113.958 18.4113C114.457 18.3858 114.785 18.1249 114.836 17.6603Z" fill="#446381"/>
      <path d="M114.066 49.4168C113.523 49.3914 113.163 49.6587 113.125 50.2187C113.081 50.836 113.39 51.2051 114.028 51.2051C114.583 51.2051 114.874 50.8869 114.912 50.3205C114.893 49.7859 114.628 49.4486 114.066 49.4168Z" fill="#446381"/>
      <path d="M114.874 25.8571C114.861 25.3543 114.583 25.0489 114.091 25.017C113.535 24.9789 113.182 25.2652 113.156 25.838C113.131 26.4108 113.447 26.7099 114.085 26.7672C114.545 26.7035 114.886 26.4426 114.874 25.8571Z" fill="#446381"/>
      <path d="M113.277 9.45704C113.245 9.88979 113.529 10.1953 113.933 10.2334C114.419 10.278 114.741 9.97252 114.741 9.47613C114.735 9.0561 114.438 8.81427 113.971 8.74426C113.611 8.82063 113.308 9.03064 113.277 9.45704Z" fill="#446381"/>
      <path d="M121.952 42.7218C122.381 42.7536 122.684 42.4673 122.722 42.06C122.766 41.5699 122.463 41.2454 121.97 41.2454C121.554 41.2517 121.314 41.5508 121.251 41.9709C121.295 42.3973 121.535 42.6836 121.952 42.7218Z" fill="#446381"/>
      <path d="M122.071 49.5823C121.642 49.525 121.333 49.805 121.276 50.2059C121.206 50.696 121.503 51.0269 121.989 51.0524C122.412 51.0714 122.652 50.7723 122.741 50.3459C122.715 49.9259 122.475 49.6332 122.071 49.5823Z" fill="#446381"/>
      <path d="M113.99 0.87187C113.674 0.878234 113.466 1.05643 113.434 1.37463C113.403 1.75011 113.573 2.01103 113.965 2.03649C114.35 2.06195 114.558 1.8583 114.596 1.45736C114.571 1.07552 114.381 0.859142 113.99 0.87187Z" fill="#446381"/>
      <path d="M121.926 25.3034C121.604 25.3289 121.434 25.5325 121.421 25.8507C121.409 26.239 121.611 26.4681 122.002 26.4617C122.394 26.4617 122.577 26.2326 122.583 25.8571C122.532 25.4562 122.305 25.2716 121.926 25.3034Z" fill="#446381"/>
      <path d="M122.614 34.035C122.659 33.5958 122.457 33.3095 121.989 33.3031C121.604 33.3031 121.39 33.5131 121.371 33.9013C121.352 34.2895 121.547 34.5059 121.977 34.5696C122.299 34.5696 122.577 34.4295 122.614 34.035Z" fill="#446381"/>
      <path d="M91.1534 33.9904C91.1786 33.1058 90.6419 32.5457 89.758 32.5394C88.9436 32.533 88.4195 33.0612 88.388 33.8758C88.3564 34.7731 88.9246 35.2377 89.7643 35.365C90.5788 35.2441 91.1344 34.8113 91.1534 33.9904Z" fill="#446381"/>
      <path d="M88.4133 25.7935C88.3501 26.6145 88.8552 27.1809 89.6444 27.2509C90.522 27.3336 91.0966 26.7863 91.1281 25.9081C91.1597 25.0871 90.6104 24.6416 89.8212 24.4825C89.0257 24.5589 88.4764 24.9853 88.4133 25.7935Z" fill="#446381"/>
      <path d="M97.7133 24.6607C96.9998 24.6798 96.5705 25.1062 96.5452 25.819C96.52 26.6018 96.9493 27.0854 97.7322 27.1045C98.5151 27.1236 98.9255 26.659 98.9886 25.8763C98.9129 25.0935 98.4962 24.6416 97.7133 24.6607Z" fill="#446381"/>
      <path d="M99.0075 41.9963C99.0138 41.2135 98.5466 40.7299 97.7701 40.7235C96.9935 40.7108 96.5136 41.1881 96.5073 41.9709C96.4947 42.7536 96.9682 43.18 97.7827 43.2691C98.5088 43.1864 99.0012 42.7855 99.0075 41.9963Z" fill="#446381"/>
      <path d="M97.7449 32.673C96.9683 32.6858 96.5011 33.1631 96.5074 33.9458C96.5137 34.7286 96.9935 35.1996 97.7701 35.1932C98.5467 35.1868 98.9571 34.6968 99.0202 33.9204C98.9445 33.1376 98.5214 32.6667 97.7449 32.673Z" fill="#446381"/>
      <path d="M83.1541 9.53978C83.1793 8.71882 82.6616 8.17151 81.8661 8.13333C80.9885 8.09514 80.4266 8.64881 80.4329 9.53342C80.4392 10.348 80.9948 10.7871 81.7903 10.908C82.5796 10.7935 83.1288 10.3607 83.1541 9.53978Z" fill="#446381"/>
      <path d="M72.4208 1.38744C72.3955 2.2784 72.9259 2.83844 73.8098 2.8448C74.6179 2.85753 75.1483 2.33568 75.1862 1.52108C75.224 0.62375 74.6621 0.159174 73.7403 0.019165C73.0269 0.165538 72.446 0.560109 72.4208 1.38744Z" fill="#446381"/>
      <path d="M91.1534 42.0919C91.2165 41.2073 90.6862 40.6218 89.8086 40.5899C88.931 40.5645 88.3817 41.1245 88.388 42.0155C88.3943 42.8365 88.9373 43.2756 89.7265 43.4092C90.5409 43.3265 91.0966 42.9001 91.1534 42.0919Z" fill="#446381"/>
      <path d="M81.7399 16.1329C80.9254 16.1584 80.4077 16.6739 80.3825 17.4885C80.3572 18.3794 80.8812 18.9395 81.7652 18.9585C82.6617 18.9776 83.11 18.4049 83.2236 17.533C83.0973 16.6675 82.6364 16.1075 81.7399 16.1329Z" fill="#446381"/>
      <path d="M81.8345 24.4316C80.938 24.4125 80.3887 24.8961 80.3508 25.8062C80.3129 26.7799 80.8369 27.3399 81.8156 27.3399C82.7247 27.3399 83.173 26.7863 83.2551 25.8953C83.1856 25.0043 82.7437 24.4507 81.8345 24.4316Z" fill="#446381"/>
      <path d="M73.8542 8.05051C72.8819 8.03778 72.3389 8.58509 72.3704 9.56515C72.3957 10.4752 72.9324 10.9716 73.8352 10.9589C74.7444 10.9461 75.1926 10.4116 75.281 9.43787C75.18 8.64237 74.7696 8.06324 73.8542 8.05051Z" fill="#446381"/>
      <path d="M65.5136 1.81178e-05C64.6107 0.0191103 64.093 0.534598 64.093 1.44466C64.093 2.43108 64.6612 2.95294 65.6272 2.90839C66.5364 2.86384 66.9594 2.29107 66.9973 1.38102C66.89 0.502778 66.4164 -0.019074 65.5136 1.81178e-05Z" fill="#446381"/>
      <path d="M81.8154 40.4881C80.9252 40.469 80.3696 40.9463 80.3128 41.85C80.2496 42.8046 80.7168 43.4219 81.6955 43.4728C82.6551 43.5237 83.1918 43.0083 83.2928 42.0409C83.2486 41.08 82.794 40.5008 81.8154 40.4881Z" fill="#446381"/>
      <path d="M80.3382 33.7421C80.2498 34.7031 80.6918 35.3268 81.6767 35.4032C82.5606 35.4732 83.1541 35.034 83.2488 34.1176C83.3498 33.1503 82.8763 32.5839 81.8977 32.4312C81.039 32.4566 80.4203 32.8194 80.3382 33.7421Z" fill="#446381"/>
      <path d="M81.7649 48.8187C80.8684 48.825 80.338 49.3278 80.3065 50.2315C80.2686 51.1988 80.7673 51.7779 81.7397 51.8098C82.712 51.8352 83.217 51.2943 83.2865 50.3269C83.2297 49.366 82.7372 48.8123 81.7649 48.8187Z" fill="#446381"/>
      <path d="M72.3198 17.5265C72.3072 18.4239 72.7807 18.9839 73.6773 19.0412C74.6243 19.1048 75.2367 18.6275 75.2872 17.6411C75.3378 16.6738 74.8263 16.1328 73.8667 16.0374C72.907 16.0755 72.3388 16.5401 72.3198 17.5265Z" fill="#446381"/>
      <path d="M65.6525 7.98688C64.7055 7.92324 64.0931 8.40691 64.0299 9.38061C63.9668 10.3352 64.4466 10.9525 65.4126 11.0162C66.3597 11.0798 66.9279 10.5898 67.0542 9.61608C67.0542 8.6742 66.6248 8.05052 65.6525 7.98688Z" fill="#446381"/>
      <path d="M75.3756 25.978C75.4198 24.9852 74.8137 24.3297 73.8288 24.3042C72.907 24.2788 72.2882 24.877 72.2377 25.7934C72.1872 26.7926 72.806 27.3526 73.7846 27.4926C74.7001 27.3972 75.3314 26.8944 75.3756 25.978Z" fill="#446381"/>
      <path d="M73.8098 32.323C72.8943 32.3102 72.2693 32.9084 72.2062 33.8185C72.143 34.8177 72.7491 35.4859 73.7214 35.5432C74.7064 35.6004 75.262 34.9577 75.4324 33.9585C75.3251 32.9912 74.8011 32.3357 73.8098 32.323Z" fill="#446381"/>
      <path d="M65.5705 15.891C64.5856 15.9292 63.9984 16.5019 63.8911 17.4756C63.7901 18.3539 64.6866 19.2767 65.5642 19.2067C66.5428 19.1303 67.0669 18.5194 67.1868 17.6284C67.1932 16.712 66.4039 15.8592 65.5705 15.891Z" fill="#446381"/>
      <path d="M73.8478 48.6595C72.8629 48.6913 72.2757 49.2641 72.1558 50.2378C72.0547 51.1097 72.9513 52.0388 73.8226 51.9752C74.8012 51.8988 75.3252 51.2942 75.4515 50.4032C75.4641 49.4868 74.6812 48.634 73.8478 48.6595Z" fill="#446381"/>
      <path d="M73.772 43.6256C74.7506 43.6447 75.3441 43.021 75.4514 42.0473C75.5461 41.1691 74.6496 40.2463 73.772 40.3227C72.7934 40.4054 72.2693 41.01 72.1431 41.9837C72.2693 42.951 72.7934 43.6065 73.772 43.6256Z" fill="#446381"/>
      <path d="M63.8602 25.889C63.8538 26.8754 64.4663 27.5182 65.4323 27.5691C66.4803 27.6263 67.1559 27.0027 67.2064 25.9526C67.2569 24.8898 66.5877 24.3298 65.5648 24.1643C64.542 24.2916 63.8728 24.8262 63.8602 25.889Z" fill="#446381"/>
      <path d="M65.4889 32.234C64.4471 32.2722 63.8158 32.934 63.8473 33.9841C63.8789 35.0342 64.5355 35.6642 65.5836 35.6387C66.6316 35.6133 67.1557 34.9196 67.263 33.8823C67.0925 32.864 66.5433 32.1958 65.4889 32.234Z" fill="#446381"/>
      <path d="M65.5326 40.2653C64.4782 40.2717 63.8847 40.889 63.8216 41.9454C63.7647 42.9573 64.6045 43.7783 65.602 43.7083C66.6627 43.6319 67.1804 42.9891 67.2688 41.9327C67.1362 40.9145 66.5996 40.2526 65.5326 40.2653Z" fill="#446381"/>
      <path d="M63.8216 50.2696C63.8342 51.3324 64.4024 51.9561 65.4505 52.0452C66.4481 52.1279 67.2878 51.307 67.2436 50.3014C67.1994 49.2259 66.5743 48.6977 65.7283 48.5895C64.5982 48.5768 63.8153 49.315 63.8216 50.2696Z" fill="#446381"/>
      </g>
      <g clip-path="url(#clip1_39_2430)">
      <path d="M32.9191 51.7651C33.7904 51.6697 34.3713 51.2305 34.3713 50.3269C34.3776 49.4359 33.8283 48.8949 32.9444 48.9013C32.1236 48.9013 31.6059 49.4168 31.5617 50.2314C31.5112 51.1351 32.0668 51.6124 32.9191 51.7651Z" fill="#446381"/>
      <path d="M31.6692 17.4312C31.7324 16.6802 32.2564 16.1902 33.014 16.2347C33.8285 16.2793 34.3336 16.8266 34.2642 17.6603C34.201 18.4112 33.677 18.8122 32.9257 18.8822C32.1175 18.7358 31.5998 18.2712 31.6692 17.4312Z" fill="#446381"/>
      <path d="M40.8746 0.146417C41.6954 0.108233 42.232 0.617357 42.2573 1.44468C42.2762 2.20837 41.7838 2.72386 41.0387 2.76204C40.2117 2.80659 39.7571 2.27837 39.6308 1.47014C39.7129 0.706453 40.1233 0.184601 40.8746 0.146417Z" fill="#446381"/>
      <path d="M34.1821 9.56513C34.1442 10.3606 33.6454 10.7743 32.8752 10.7234C32.1617 10.6788 31.7513 10.227 31.7577 9.50785C31.7577 8.71235 32.2249 8.31141 32.9951 8.2605C33.7717 8.34323 34.22 8.77599 34.1821 9.56513Z" fill="#446381"/>
      <path d="M25.002 49.054C25.7785 49.0667 26.2458 49.5504 26.2394 50.3268C26.2331 51.1096 25.7533 51.5805 24.9767 51.5742C24.2001 51.5678 23.7897 51.0778 23.7266 50.3014C23.7961 49.525 24.2191 49.0477 25.002 49.054Z" fill="#446381"/>
      <path d="M15.6198 33.9204C15.6387 33.2649 16.0491 32.8385 16.6931 32.8385C17.4129 32.8385 17.8485 33.2967 17.8043 34.0222C17.7601 34.665 17.3118 35.0086 16.6047 35.0659C16.0554 34.9132 15.6008 34.5886 15.6198 33.9204Z" fill="#446381"/>
      <path d="M16.5983 49.1941C17.3244 49.1241 17.7853 49.5377 17.8358 50.2696C17.88 50.9378 17.4759 51.3769 16.8319 51.4406C16.0996 51.5169 15.7018 51.0715 15.5755 50.3841C15.6134 49.7032 15.948 49.2513 16.5983 49.1941Z" fill="#446381"/>
      <path d="M17.7792 25.9144C17.7729 26.5126 17.3752 26.9199 16.7943 26.9581C16.1314 27.0026 15.6894 26.589 15.6578 25.9335C15.62 25.2653 16.0682 24.9089 16.7122 24.7943C17.3499 24.8898 17.7855 25.2398 17.7792 25.9144Z" fill="#446381"/>
      <path d="M17.8359 41.9645C17.8296 42.6964 17.3877 43.1291 16.6616 43.1037C16.0113 43.0782 15.6009 42.6518 15.6009 41.99C15.6009 41.2517 16.0618 40.889 16.7689 40.819C17.4066 40.9463 17.8359 41.2963 17.8359 41.9645Z" fill="#446381"/>
      <path d="M24.9008 0.426415C25.5511 0.381866 25.9804 0.789165 26.0057 1.44466C26.0246 2.03652 25.6332 2.44382 25.065 2.482C24.4147 2.52655 24.0485 2.11289 23.9348 1.4383C24.0169 0.884626 24.3263 0.464599 24.9008 0.426415Z" fill="#446381"/>
      <path d="M34.1063 1.41286C34.1252 2.132 33.7212 2.57748 33.0077 2.60294C32.2943 2.6284 31.8586 2.2211 31.8271 1.4956C31.7955 0.770094 32.2248 0.388251 33.0077 0.267334C33.6012 0.369159 34.0937 0.668269 34.1063 1.41286Z" fill="#446381"/>
      <path d="M26.0752 9.49519C26.0752 10.1507 25.6648 10.5834 25.0208 10.6025C24.3011 10.6153 23.8591 10.1634 23.8907 9.43792C23.9159 8.78878 24.3642 8.44513 25.0082 8.37512C25.6459 8.48967 26.0752 8.8397 26.0752 9.49519Z" fill="#446381"/>
      <path d="M26.1257 17.4884C26.1573 18.2076 25.7595 18.6594 25.0461 18.6976C24.3326 18.7358 23.8907 18.3285 23.8465 17.6094C23.8023 16.8839 24.2316 16.4957 24.9135 16.3811C25.6269 16.4193 26.0878 16.7629 26.1257 17.4884Z" fill="#446381"/>
      <path d="M17.7286 17.6793C17.6591 18.2584 17.2424 18.6339 16.6616 18.583C16.0239 18.5257 15.6261 18.0929 15.7082 17.4311C15.7777 16.852 16.1944 16.5465 16.7689 16.5083C17.4003 16.6419 17.8107 17.0111 17.7286 17.6793Z" fill="#446381"/>
      <path d="M16.6111 8.60415C17.1478 8.55324 17.5329 8.79508 17.5961 9.36147C17.6592 9.96606 17.3877 10.367 16.75 10.3988C16.2007 10.4243 15.8851 10.1252 15.8219 9.57149C15.8156 9.02418 16.0555 8.66143 16.6111 8.60415Z" fill="#446381"/>
      <path d="M15.8914 1.58464C15.8093 1.03733 16.1124 0.674577 16.6491 0.617301C17.1289 0.566389 17.4635 0.859135 17.533 1.32371C17.615 1.87738 17.2994 2.18922 16.788 2.30377C16.2955 2.29741 15.9609 2.05558 15.8914 1.58464Z" fill="#446381"/>
      <path d="M7.8415 34.0349C7.7973 33.494 8.03722 33.1058 8.59914 33.0485C9.20525 32.9849 9.59669 33.2649 9.62195 33.914C9.64089 34.4677 9.34415 34.7859 8.80118 34.8432C8.24557 34.8432 7.892 34.595 7.8415 34.0349Z" fill="#446381"/>
      <path d="M8.64949 41.0863C9.19246 41.0481 9.56497 41.309 9.61548 41.8691C9.66599 42.48 9.37556 42.8682 8.73788 42.881C8.18228 42.8937 7.88554 42.5819 7.82872 41.9518C7.85397 41.4872 8.08757 41.1181 8.64949 41.0863Z" fill="#446381"/>
      <path d="M7.90461 17.6603C7.84147 17.113 8.14453 16.7566 8.69381 16.7184C9.17996 16.6802 9.50196 16.9857 9.55878 17.4503C9.62192 17.9976 9.29992 18.3094 8.7822 18.4113C8.28343 18.3858 7.95512 18.1249 7.90461 17.6603Z" fill="#446381"/>
      <path d="M8.67474 49.4168C9.21772 49.3914 9.5776 49.6587 9.61548 50.2187C9.65968 50.836 9.35031 51.2051 8.71263 51.2051C8.15702 51.2051 7.86659 50.8869 7.82871 50.3205C7.84765 49.7859 8.11282 49.4486 8.67474 49.4168Z" fill="#446381"/>
      <path d="M7.86674 25.8571C7.87936 25.3543 8.15716 25.0489 8.64963 25.017C9.20523 24.9789 9.55879 25.2652 9.58405 25.838C9.6093 26.4108 9.29362 26.7099 8.65594 26.7672C8.19505 26.7035 7.85411 26.4426 7.86674 25.8571Z" fill="#446381"/>
      <path d="M9.46392 9.45704C9.49548 9.88979 9.21137 10.1953 8.80729 10.2334C8.32114 10.278 7.99915 9.97252 7.99915 9.47613C8.00546 9.0561 8.3022 8.81427 8.76941 8.74426C9.12929 8.82063 9.43235 9.03064 9.46392 9.45704Z" fill="#446381"/>
      <path d="M0.788934 42.7218C0.359608 42.7536 0.0565538 42.4673 0.0186721 42.06C-0.0255232 41.5699 0.277532 41.2454 0.769994 41.2454C1.18669 41.2517 1.42661 41.5508 1.48975 41.9709C1.44555 42.3973 1.20563 42.6836 0.788934 42.7218Z" fill="#446381"/>
      <path d="M0.669056 49.5823C1.09838 49.525 1.40775 49.805 1.46457 50.2059C1.53402 50.696 1.23729 51.0269 0.751136 51.0524C0.328123 51.0714 0.0882038 50.7723 -0.00018692 50.3459C0.0250676 49.9259 0.264984 49.6332 0.669056 49.5823Z" fill="#446381"/>
      <path d="M8.75052 0.87187C9.06621 0.878234 9.27456 1.05643 9.30612 1.37463C9.33769 1.75011 9.16722 2.01103 8.77578 2.03649C8.39064 2.06195 8.18229 1.8583 8.14441 1.45736C8.16966 1.07552 8.35907 0.859142 8.75052 0.87187Z" fill="#446381"/>
      <path d="M0.814178 25.3034C1.13617 25.3289 1.30664 25.5325 1.31927 25.8507C1.33189 26.2389 1.12986 26.4681 0.738412 26.4617C0.346967 26.4617 0.163872 26.2326 0.157558 25.8571C0.208068 25.4562 0.435359 25.2716 0.814178 25.3034Z" fill="#446381"/>
      <path d="M0.126049 34.035C0.0818534 33.5958 0.283894 33.3095 0.751105 33.3031C1.13624 33.3031 1.3509 33.5131 1.36984 33.9013C1.38878 34.2895 1.19306 34.5059 0.763731 34.5695C0.441734 34.5695 0.163931 34.4295 0.126049 34.035Z" fill="#446381"/>
      <path d="M31.5871 33.9904C31.5619 33.1058 32.0985 32.5457 32.9824 32.5394C33.7969 32.533 34.3209 33.0612 34.3525 33.8758C34.3841 34.7731 33.8158 35.2377 32.9761 35.365C32.1617 35.2441 31.6061 34.8113 31.5871 33.9904Z" fill="#446381"/>
      <path d="M34.3272 25.7935C34.3903 26.6145 33.8853 27.1809 33.096 27.2509C32.2184 27.3336 31.6439 26.7863 31.6123 25.9081C31.5808 25.0871 32.1301 24.6416 32.9193 24.4825C33.7148 24.5589 34.2641 24.9853 34.3272 25.7935Z" fill="#446381"/>
      <path d="M25.0272 24.6607C25.7407 24.6798 26.17 25.1062 26.1952 25.819C26.2205 26.6018 25.7912 27.0854 25.0083 27.1045C24.2254 27.1236 23.815 26.659 23.7518 25.8763C23.8276 25.0935 24.2443 24.6416 25.0272 24.6607Z" fill="#446381"/>
      <path d="M23.7329 41.9963C23.7266 41.2135 24.1938 40.7299 24.9704 40.7235C25.747 40.7108 26.2268 41.1881 26.2332 41.9709C26.2458 42.7536 25.7723 43.18 24.9578 43.2691C24.2317 43.1864 23.7393 42.7855 23.7329 41.9963Z" fill="#446381"/>
      <path d="M24.9956 32.673C25.7722 32.6858 26.2394 33.1631 26.2331 33.9458C26.2268 34.7286 25.7469 35.1996 24.9704 35.1932C24.1938 35.1868 23.7834 34.6968 23.7203 33.9204C23.796 33.1376 24.219 32.6667 24.9956 32.673Z" fill="#446381"/>
      <path d="M39.5864 9.53978C39.5611 8.71882 40.0788 8.17151 40.8744 8.13333C41.752 8.09514 42.3139 8.64881 42.3076 9.53342C42.3013 10.348 41.7457 10.7871 40.9501 10.908C40.1609 10.7935 39.6116 10.3607 39.5864 9.53978Z" fill="#446381"/>
      <path d="M50.3197 1.38744C50.3449 2.2784 49.8146 2.83844 48.9307 2.8448C48.1225 2.85753 47.5922 2.33568 47.5543 1.52108C47.5164 0.62375 48.0783 0.159174 49.0001 0.019165C49.7136 0.165538 50.2944 0.560109 50.3197 1.38744Z" fill="#446381"/>
      <path d="M31.5871 42.0919C31.524 41.2073 32.0543 40.6218 32.9319 40.5899C33.8095 40.5645 34.3588 41.1245 34.3525 42.0155C34.3462 42.8365 33.8032 43.2756 33.014 43.4092C32.1995 43.3265 31.6439 42.9001 31.5871 42.0919Z" fill="#446381"/>
      <path d="M41.0008 16.1329C41.8153 16.1584 42.333 16.6739 42.3583 17.4885C42.3835 18.3794 41.8595 18.9395 40.9756 18.9585C40.079 18.9776 39.6308 18.4049 39.5171 17.533C39.6434 16.6675 40.1043 16.1075 41.0008 16.1329Z" fill="#446381"/>
      <path d="M40.906 24.4316C41.8025 24.4125 42.3518 24.8961 42.3897 25.8062C42.4276 26.7799 41.9035 27.3399 40.9249 27.3399C40.0157 27.3399 39.5675 26.7863 39.4854 25.8953C39.5549 25.0043 39.9968 24.4507 40.906 24.4316Z" fill="#446381"/>
      <path d="M48.8866 8.05051C49.8589 8.03778 50.4018 8.58509 50.3703 9.56515C50.345 10.4752 49.8084 10.9716 48.9055 10.9589C47.9963 10.9462 47.5481 10.4116 47.4597 9.43787C47.5607 8.64237 47.9711 8.06324 48.8866 8.05051Z" fill="#446381"/>
      <path d="M57.2269 1.81178e-05C58.1297 0.0191103 58.6475 0.534598 58.6475 1.44466C58.6475 2.43108 58.0792 2.95294 57.1132 2.90839C56.2041 2.86384 55.7811 2.29107 55.7432 1.38102C55.8505 0.502778 56.324 -0.019074 57.2269 1.81178e-05Z" fill="#446381"/>
      <path d="M40.9251 40.4881C41.8153 40.469 42.3709 40.9463 42.4277 41.85C42.4908 42.8046 42.0236 43.4219 41.045 43.4728C40.0853 43.5237 39.5487 43.0083 39.4477 42.0409C39.4919 41.08 39.9464 40.5008 40.9251 40.4881Z" fill="#446381"/>
      <path d="M42.4023 33.7421C42.4907 34.7031 42.0487 35.3268 41.0638 35.4032C40.1799 35.4732 39.5864 35.034 39.4917 34.1176C39.3907 33.1503 39.8642 32.5839 40.8428 32.4312C41.7015 32.4566 42.3202 32.8194 42.4023 33.7421Z" fill="#446381"/>
      <path d="M40.9756 48.8187C41.8721 48.825 42.4025 49.3278 42.434 50.2315C42.4719 51.1988 41.9731 51.7779 41.0008 51.8098C40.0285 51.8352 39.5234 51.2943 39.454 50.3269C39.5108 49.366 40.0033 48.8123 40.9756 48.8187Z" fill="#446381"/>
      <path d="M50.4207 17.5267C50.4333 18.424 49.9598 18.984 49.0632 19.0413C48.1162 19.1049 47.5037 18.6276 47.4532 17.6412C47.4027 16.6739 47.9141 16.1329 48.8738 16.0375C49.8335 16.0757 50.4017 16.5402 50.4207 17.5267Z" fill="#446381"/>
      <path d="M57.0879 7.98688C58.035 7.92324 58.6474 8.40691 58.7105 9.38061C58.7737 10.3352 58.2938 10.9525 57.3279 11.0162C56.3808 11.0798 55.8126 10.5898 55.6863 9.61608C55.6863 8.6742 56.1156 8.05053 57.0879 7.98688Z" fill="#446381"/>
      <path d="M47.3648 25.978C47.3207 24.9852 47.9268 24.3297 48.9117 24.3042C49.8335 24.2788 50.4522 24.877 50.5027 25.7934C50.5532 26.7926 49.9345 27.3526 48.9559 27.4926C48.0404 27.3972 47.409 26.8944 47.3648 25.978Z" fill="#446381"/>
      <path d="M48.9307 32.323C49.8461 32.3102 50.4712 32.9084 50.5343 33.8185C50.5975 34.8177 49.9913 35.4859 49.019 35.5432C48.0341 35.6004 47.4785 34.9577 47.308 33.9585C47.4154 32.9912 47.9394 32.3357 48.9307 32.323Z" fill="#446381"/>
      <path d="M57.1699 15.891C58.1549 15.9292 58.742 16.5019 58.8494 17.4756C58.9504 18.3539 58.0538 19.2767 57.1762 19.2067C56.1976 19.1303 55.6736 18.5194 55.5536 17.6284C55.5473 16.712 56.3365 15.8592 57.1699 15.891Z" fill="#446381"/>
      <path d="M48.8929 48.6595C49.8778 48.6913 50.465 49.2641 50.585 50.2378C50.686 51.1097 49.7894 52.0388 48.9182 51.9752C47.9395 51.8988 47.4155 51.2942 47.2892 50.4032C47.2766 49.4868 48.0595 48.634 48.8929 48.6595Z" fill="#446381"/>
      <path d="M48.9685 43.6256C47.9899 43.6447 47.3964 43.021 47.2891 42.0473C47.1943 41.1691 48.0909 40.2463 48.9685 40.3227C49.9471 40.4054 50.4711 41.01 50.5974 41.9837C50.4711 42.951 49.9471 43.6065 48.9685 43.6256Z" fill="#446381"/>
      <path d="M58.8803 25.889C58.8866 26.8754 58.2742 27.5182 57.3082 27.5691C56.2602 27.6263 55.5846 27.0027 55.5341 25.9526C55.4836 24.8898 56.1528 24.3298 57.1756 24.1643C58.1984 24.2916 58.8677 24.8262 58.8803 25.889Z" fill="#446381"/>
      <path d="M57.2516 32.234C58.2934 32.2722 58.9247 32.934 58.8932 33.9841C58.8616 35.0342 58.205 35.6642 57.1569 35.6387C56.1088 35.6133 55.5848 34.9196 55.4775 33.8823C55.6479 32.864 56.1972 32.1958 57.2516 32.234Z" fill="#446381"/>
      <path d="M57.2077 40.2653C58.262 40.2717 58.8555 40.889 58.9187 41.9454C58.9755 42.9573 58.1358 43.7783 57.1382 43.7083C56.0775 43.6319 55.5598 42.9891 55.4714 41.9327C55.604 40.9145 56.1407 40.2526 57.2077 40.2653Z" fill="#446381"/>
      <path d="M58.9189 50.2696C58.9063 51.3324 58.3381 51.9561 57.29 52.0452C56.2924 52.1279 55.4527 51.307 55.4969 50.3014C55.5411 49.2259 56.1662 48.6977 57.0122 48.5895C58.1423 48.5768 58.9252 49.315 58.9189 50.2696Z" fill="#446381"/>
      </g>
      <g clip-path="url(#clip2_39_2430)">
      <path d="M89.8213 57.2275C88.9501 57.323 88.3692 57.7621 88.3692 58.6658C88.3629 59.5568 88.9122 60.0977 89.7961 60.0914C90.6169 60.0914 91.1346 59.5759 91.1788 58.7613C91.2293 57.8576 90.6737 57.3803 89.8213 57.2275Z" fill="#446381"/>
      <path d="M91.0715 91.5615C91.0083 92.3125 90.4843 92.8025 89.7267 92.7579C88.9122 92.7134 88.4071 92.1661 88.4766 91.3324C88.5397 90.5814 89.0637 90.1805 89.8151 90.1105C90.6232 90.2569 91.1409 90.7214 91.0715 91.5615Z" fill="#446381"/>
      <path d="M81.8661 108.846C81.0454 108.884 80.5087 108.375 80.4834 107.548C80.4645 106.784 80.957 106.269 81.702 106.231C82.5291 106.186 82.9836 106.714 83.1099 107.523C83.0278 108.286 82.6175 108.808 81.8661 108.846Z" fill="#446381"/>
      <path d="M88.5586 99.4275C88.5965 98.632 89.0953 98.2184 89.8655 98.2693C90.579 98.3138 90.9894 98.7657 90.9831 99.4848C90.9831 100.28 90.5159 100.681 89.7456 100.732C88.969 100.649 88.5207 100.217 88.5586 99.4275Z" fill="#446381"/>
      <path d="M97.7385 59.9385C96.9619 59.9258 96.4947 59.4421 96.501 58.6657C96.5074 57.8829 96.9872 57.412 97.7638 57.4184C98.5403 57.4247 98.9507 57.9148 99.0139 58.6912C98.9444 59.4676 98.5214 59.9449 97.7385 59.9385Z" fill="#446381"/>
      <path d="M107.121 75.0723C107.102 75.7278 106.691 76.1542 106.047 76.1542C105.328 76.1542 104.892 75.696 104.936 74.9705C104.98 74.3277 105.429 73.984 106.136 73.9268C106.685 74.0795 107.14 74.4041 107.121 75.0723Z" fill="#446381"/>
      <path d="M106.142 59.7986C105.416 59.8686 104.955 59.455 104.905 58.7231C104.86 58.0549 105.265 57.6157 105.909 57.5521C106.641 57.4757 107.039 57.9212 107.165 58.6085C107.127 59.2895 106.792 59.7413 106.142 59.7986Z" fill="#446381"/>
      <path d="M104.961 83.0783C104.968 82.4801 105.366 82.0728 105.946 82.0346C106.609 81.99 107.051 82.4037 107.083 83.0592C107.121 83.7274 106.672 84.0838 106.028 84.1984C105.391 84.1029 104.955 83.7529 104.961 83.0783Z" fill="#446381"/>
      <path d="M104.905 67.0282C104.911 66.2963 105.353 65.8635 106.079 65.889C106.729 65.9145 107.14 66.3409 107.14 67.0027C107.14 67.7409 106.679 68.1037 105.972 68.1737C105.334 68.0464 104.905 67.6964 104.905 67.0282Z" fill="#446381"/>
      <path d="M97.8397 108.566C97.1894 108.611 96.76 108.204 96.7348 107.548C96.7158 106.956 97.1073 106.549 97.6755 106.511C98.3258 106.466 98.692 106.88 98.8057 107.554C98.7236 108.108 98.4142 108.528 97.8397 108.566Z" fill="#446381"/>
      <path d="M88.6342 107.58C88.6152 106.861 89.0193 106.415 89.7328 106.39C90.4462 106.364 90.8818 106.772 90.9134 107.497C90.945 108.223 90.5157 108.604 89.7328 108.725C89.1393 108.624 88.6468 108.324 88.6342 107.58Z" fill="#446381"/>
      <path d="M96.6653 99.4975C96.6653 98.842 97.0757 98.4092 97.7197 98.3901C98.4394 98.3774 98.8814 98.8293 98.8498 99.5548C98.8246 100.204 98.3763 100.548 97.7323 100.618C97.0946 100.503 96.6653 100.153 96.6653 99.4975Z" fill="#446381"/>
      <path d="M96.6148 91.5042C96.5832 90.7851 96.981 90.3332 97.6944 90.2951C98.4079 90.2569 98.8498 90.6642 98.894 91.3833C98.9382 92.1088 98.5089 92.497 97.827 92.6116C97.1136 92.5734 96.6527 92.2297 96.6148 91.5042Z" fill="#446381"/>
      <path d="M105.012 91.3134C105.081 90.7343 105.498 90.3588 106.079 90.4097C106.717 90.467 107.114 90.8997 107.032 91.5616C106.963 92.1407 106.546 92.4462 105.972 92.4844C105.34 92.3507 104.93 91.9816 105.012 91.3134Z" fill="#446381"/>
      <path d="M106.13 100.388C105.593 100.439 105.208 100.197 105.145 99.6311C105.082 99.0265 105.353 98.6256 105.991 98.5937C106.54 98.5683 106.856 98.8674 106.919 99.4211C106.925 99.9684 106.685 100.331 106.13 100.388Z" fill="#446381"/>
      <path d="M106.849 107.408C106.931 107.955 106.628 108.318 106.092 108.375C105.612 108.426 105.277 108.134 105.208 107.669C105.126 107.115 105.441 106.803 105.953 106.689C106.445 106.695 106.78 106.937 106.849 107.408Z" fill="#446381"/>
      <path d="M114.899 74.9578C114.943 75.4987 114.704 75.8869 114.142 75.9442C113.535 76.0078 113.144 75.7278 113.119 75.0787C113.1 74.525 113.397 74.2068 113.94 74.1495C114.495 74.1495 114.849 74.3977 114.899 74.9578Z" fill="#446381"/>
      <path d="M114.091 67.9064C113.548 67.9446 113.176 67.6836 113.125 67.1236C113.074 66.5126 113.365 66.1244 114.003 66.1117C114.558 66.099 114.855 66.4108 114.912 67.0409C114.887 67.5054 114.653 67.8746 114.091 67.9064Z" fill="#446381"/>
      <path d="M114.836 91.3324C114.899 91.8797 114.596 92.2361 114.047 92.2743C113.561 92.3124 113.239 92.007 113.182 91.5424C113.119 90.9951 113.441 90.6832 113.958 90.5814C114.457 90.6069 114.785 90.8678 114.836 91.3324Z" fill="#446381"/>
      <path d="M114.066 59.5759C113.523 59.6013 113.163 59.334 113.125 58.774C113.081 58.1567 113.39 57.7876 114.028 57.7876C114.583 57.7876 114.874 58.1058 114.912 58.6722C114.893 59.2067 114.628 59.544 114.066 59.5759Z" fill="#446381"/>
      <path d="M114.874 83.1356C114.861 83.6383 114.583 83.9438 114.091 83.9756C113.535 84.0138 113.182 83.7274 113.156 83.1547C113.131 82.5819 113.447 82.2828 114.085 82.2255C114.545 82.2892 114.886 82.5501 114.874 83.1356Z" fill="#446381"/>
      <path d="M113.277 99.5356C113.245 99.1029 113.529 98.7974 113.933 98.7592C114.419 98.7147 114.741 99.0202 114.741 99.5165C114.735 99.9366 114.438 100.178 113.971 100.248C113.611 100.172 113.308 99.962 113.277 99.5356Z" fill="#446381"/>
      <path d="M121.952 66.2709C122.381 66.239 122.684 66.5254 122.722 66.9327C122.766 67.4227 122.463 67.7473 121.97 67.7473C121.554 67.741 121.314 67.4418 121.251 67.0218C121.295 66.5954 121.535 66.309 121.952 66.2709Z" fill="#446381"/>
      <path d="M122.071 59.4104C121.642 59.4677 121.333 59.1877 121.276 58.7867C121.206 58.2967 121.503 57.9658 121.989 57.9403C122.412 57.9212 122.652 58.2203 122.741 58.6467C122.715 59.0668 122.475 59.3595 122.071 59.4104Z" fill="#446381"/>
      <path d="M113.99 108.121C113.674 108.114 113.466 107.936 113.434 107.618C113.403 107.243 113.573 106.982 113.965 106.956C114.35 106.931 114.558 107.134 114.596 107.535C114.571 107.917 114.381 108.134 113.99 108.121Z" fill="#446381"/>
      <path d="M121.926 83.6892C121.604 83.6638 121.434 83.4601 121.421 83.1419C121.409 82.7537 121.611 82.5246 122.002 82.531C122.394 82.531 122.577 82.7601 122.583 83.1356C122.532 83.5365 122.305 83.7211 121.926 83.6892Z" fill="#446381"/>
      <path d="M122.614 74.9577C122.659 75.3968 122.457 75.6832 121.989 75.6896C121.604 75.6896 121.39 75.4796 121.371 75.0914C121.352 74.7031 121.547 74.4868 121.977 74.4231C122.299 74.4231 122.577 74.5631 122.614 74.9577Z" fill="#446381"/>
      <path d="M91.1534 75.0023C91.1786 75.8869 90.6419 76.4469 89.758 76.4533C88.9436 76.4597 88.4195 75.9315 88.388 75.1169C88.3564 74.2195 88.9246 73.755 89.7643 73.6277C90.5788 73.7486 91.1344 74.1813 91.1534 75.0023Z" fill="#446381"/>
      <path d="M88.4133 83.1991C88.3501 82.3782 88.8552 81.8118 89.6444 81.7418C90.522 81.659 91.0966 82.2063 91.1281 83.0846C91.1597 83.9055 90.6104 84.351 89.8212 84.5101C89.0257 84.4338 88.4764 84.0074 88.4133 83.1991Z" fill="#446381"/>
      <path d="M97.7133 84.3319C96.9998 84.3128 96.5705 83.8865 96.5452 83.1737C96.52 82.3909 96.9493 81.9072 97.7322 81.8881C98.5151 81.8691 98.9255 82.3336 98.9886 83.1164C98.9129 83.8992 98.4962 84.351 97.7133 84.3319Z" fill="#446381"/>
      <path d="M99.0075 66.9964C99.0138 67.7791 98.5466 68.2628 97.7701 68.2692C96.9935 68.2819 96.5136 67.8046 96.5073 67.0218C96.4947 66.239 96.9682 65.8126 97.7827 65.7235C98.5088 65.8063 99.0012 66.2072 99.0075 66.9964Z" fill="#446381"/>
      <path d="M97.7449 76.3196C96.9683 76.3069 96.5011 75.8296 96.5074 75.0468C96.5137 74.2641 96.9935 73.7931 97.7701 73.7995C98.5467 73.8058 98.9571 74.2959 99.0202 75.0723C98.9445 75.8551 98.5214 76.326 97.7449 76.3196Z" fill="#446381"/>
      <path d="M83.1541 99.4529C83.1793 100.274 82.6616 100.821 81.8661 100.859C80.9885 100.898 80.4266 100.344 80.4329 99.4593C80.4392 98.6447 80.9948 98.2055 81.7903 98.0846C82.5796 98.1992 83.1288 98.6319 83.1541 99.4529Z" fill="#446381"/>
      <path d="M72.4208 107.605C72.3955 106.714 72.9259 106.154 73.8098 106.148C74.6179 106.135 75.1483 106.657 75.1862 107.472C75.224 108.369 74.6621 108.834 73.7403 108.974C73.0269 108.827 72.446 108.433 72.4208 107.605Z" fill="#446381"/>
      <path d="M91.1534 66.9008C91.2165 67.7854 90.6862 68.3709 89.8086 68.4027C88.931 68.4282 88.3817 67.8682 88.388 66.9772C88.3943 66.1562 88.9373 65.7171 89.7265 65.5835C90.5409 65.6662 91.0966 66.0926 91.1534 66.9008Z" fill="#446381"/>
      <path d="M81.7399 92.8598C80.9254 92.8343 80.4077 92.3188 80.3825 91.5042C80.3572 90.6133 80.8812 90.0532 81.7652 90.0341C82.6617 90.015 83.11 90.5878 83.2236 91.4597C83.0973 92.3252 82.6364 92.8852 81.7399 92.8598Z" fill="#446381"/>
      <path d="M81.8345 84.5611C80.938 84.5802 80.3887 84.0965 80.3508 83.1865C80.3129 82.2128 80.8369 81.6527 81.8156 81.6527C82.7247 81.6527 83.173 82.2064 83.2551 83.0974C83.1856 83.9883 82.7437 84.542 81.8345 84.5611Z" fill="#446381"/>
      <path d="M73.8542 100.942C72.8819 100.955 72.3389 100.408 72.3704 99.4275C72.3957 98.5175 72.9324 98.0211 73.8352 98.0338C74.7444 98.0465 75.1926 98.5811 75.281 99.5548C75.18 100.35 74.7696 100.929 73.8542 100.942Z" fill="#446381"/>
      <path d="M65.5136 108.993C64.6107 108.974 64.093 108.458 64.093 107.548C64.093 106.562 64.6612 106.04 65.6272 106.084C66.5364 106.129 66.9594 106.702 66.9973 107.612C66.89 108.49 66.4164 109.012 65.5136 108.993Z" fill="#446381"/>
      <path d="M81.8154 68.5046C80.9252 68.5237 80.3696 68.0464 80.3128 67.1427C80.2496 66.1881 80.7168 65.5708 81.6955 65.5198C82.6551 65.4689 83.1918 65.9844 83.2928 66.9518C83.2486 67.9127 82.794 68.4918 81.8154 68.5046Z" fill="#446381"/>
      <path d="M80.3382 75.2505C80.2498 74.2896 80.6918 73.6659 81.6767 73.5895C82.5606 73.5195 83.1541 73.9586 83.2488 74.8751C83.3498 75.8424 82.8763 76.4088 81.8977 76.5615C81.039 76.5361 80.4203 76.1733 80.3382 75.2505Z" fill="#446381"/>
      <path d="M81.7649 60.174C80.8684 60.1677 80.338 59.6649 80.3065 58.7612C80.2686 57.7939 80.7673 57.2147 81.7397 57.1829C82.712 57.1575 83.217 57.6984 83.2865 58.6657C83.2297 59.6267 82.7372 60.1804 81.7649 60.174Z" fill="#446381"/>
      <path d="M72.3198 91.466C72.3072 90.5687 72.7807 90.0086 73.6773 89.9514C74.6243 89.8877 75.2367 90.365 75.2872 91.3515C75.3378 92.3188 74.8263 92.8597 73.8667 92.9552C72.907 92.917 72.3388 92.4524 72.3198 91.466Z" fill="#446381"/>
      <path d="M65.6525 101.006C64.7055 101.069 64.0931 100.586 64.0299 99.6121C63.9668 98.6575 64.4466 98.0401 65.4126 97.9765C66.3597 97.9129 66.9279 98.4029 67.0542 99.3766C67.0542 100.318 66.6248 100.942 65.6525 101.006Z" fill="#446381"/>
      <path d="M75.3756 83.0146C75.4198 84.0074 74.8137 84.6628 73.8288 84.6883C72.907 84.7138 72.2882 84.1155 72.2377 83.1991C72.1872 82.2 72.806 81.6399 73.7846 81.4999C74.7001 81.5954 75.3314 82.0981 75.3756 83.0146Z" fill="#446381"/>
      <path d="M73.8098 76.6697C72.8943 76.6825 72.2693 76.0842 72.2062 75.1742C72.143 74.175 72.7491 73.5068 73.7214 73.4495C74.7064 73.3922 75.262 74.035 75.4324 75.0342C75.3251 76.0015 74.8011 76.657 73.8098 76.6697Z" fill="#446381"/>
      <path d="M65.5705 93.1017C64.5856 93.0635 63.9984 92.4907 63.8911 91.517C63.7901 90.6388 64.6866 89.716 65.5642 89.786C66.5428 89.8624 67.0669 90.4733 67.1868 91.3643C67.1932 92.2807 66.4039 93.1335 65.5705 93.1017Z" fill="#446381"/>
      <path d="M73.8478 60.3332C72.8629 60.3014 72.2757 59.7286 72.1558 58.7549C72.0547 57.883 72.9513 56.9539 73.8226 57.0175C74.8012 57.0939 75.3252 57.6985 75.4515 58.5894C75.4641 59.5059 74.6812 60.3586 73.8478 60.3332Z" fill="#446381"/>
      <path d="M73.772 65.3671C74.7506 65.348 75.3441 65.9717 75.4514 66.9453C75.5461 67.8236 74.6496 68.7464 73.772 68.67C72.7934 68.5873 72.2693 67.9827 72.1431 67.009C72.2693 66.0417 72.7934 65.3862 73.772 65.3671Z" fill="#446381"/>
      <path d="M63.8602 83.1037C63.8538 82.1173 64.4663 81.4745 65.4323 81.4236C66.4803 81.3663 67.1559 81.99 67.2064 83.0401C67.2569 84.1029 66.5877 84.6629 65.5648 84.8284C64.542 84.7011 63.8728 84.1665 63.8602 83.1037Z" fill="#446381"/>
      <path d="M65.4889 76.7587C64.4471 76.7205 63.8158 76.0587 63.8473 75.0086C63.8789 73.9585 64.5355 73.3285 65.5836 73.3539C66.6316 73.3794 67.1557 74.0731 67.263 75.1104C67.0925 76.1287 66.5433 76.7969 65.4889 76.7587Z" fill="#446381"/>
      <path d="M65.5326 68.7274C64.4782 68.721 63.8847 68.1037 63.8216 67.0472C63.7647 66.0354 64.6045 65.2144 65.602 65.2844C66.6627 65.3608 67.1804 66.0035 67.2688 67.06C67.1362 68.0782 66.5996 68.7401 65.5326 68.7274Z" fill="#446381"/>
      <path d="M63.8216 58.7231C63.8342 57.6603 64.4024 57.0366 65.4505 56.9475C66.4481 56.8648 67.2878 57.6857 67.2436 58.6912C67.1994 59.7668 66.5743 60.295 65.7283 60.4032C64.5982 60.4159 63.8153 59.6777 63.8216 58.7231Z" fill="#446381"/>
      </g>
      <g clip-path="url(#clip3_39_2430)">
      <path d="M32.9191 57.2275C33.7904 57.323 34.3713 57.7621 34.3713 58.6658C34.3776 59.5568 33.8283 60.0977 32.9444 60.0914C32.1236 60.0914 31.6059 59.5759 31.5617 58.7613C31.5112 57.8576 32.0668 57.3803 32.9191 57.2275Z" fill="#446381"/>
      <path d="M31.6692 91.5615C31.7324 92.3125 32.2564 92.8025 33.014 92.7579C33.8285 92.7134 34.3336 92.1661 34.2642 91.3324C34.201 90.5814 33.677 90.1805 32.9257 90.1105C32.1175 90.2569 31.5998 90.7214 31.6692 91.5615Z" fill="#446381"/>
      <path d="M40.8746 108.846C41.6954 108.884 42.232 108.375 42.2573 107.548C42.2762 106.784 41.7838 106.269 41.0387 106.231C40.2117 106.186 39.7571 106.714 39.6308 107.523C39.7129 108.286 40.1233 108.808 40.8746 108.846Z" fill="#446381"/>
      <path d="M34.1821 99.4275C34.1442 98.632 33.6454 98.2184 32.8752 98.2693C32.1617 98.3138 31.7513 98.7657 31.7577 99.4848C31.7577 100.28 32.2249 100.681 32.9951 100.732C33.7717 100.649 34.22 100.217 34.1821 99.4275Z" fill="#446381"/>
      <path d="M25.002 59.9385C25.7785 59.9258 26.2458 59.4421 26.2394 58.6657C26.2331 57.8829 25.7533 57.412 24.9767 57.4184C24.2001 57.4247 23.7897 57.9148 23.7266 58.6912C23.7961 59.4676 24.2191 59.9449 25.002 59.9385Z" fill="#446381"/>
      <path d="M15.6198 75.0723C15.6387 75.7278 16.0491 76.1542 16.6931 76.1542C17.4129 76.1542 17.8485 75.696 17.8043 74.9705C17.7601 74.3277 17.3118 73.984 16.6047 73.9268C16.0554 74.0795 15.6008 74.4041 15.6198 75.0723Z" fill="#446381"/>
      <path d="M16.5983 59.7986C17.3244 59.8686 17.7853 59.455 17.8358 58.7231C17.88 58.0549 17.4759 57.6157 16.8319 57.5521C16.0996 57.4757 15.7018 57.9212 15.5755 58.6085C15.6134 59.2895 15.948 59.7413 16.5983 59.7986Z" fill="#446381"/>
      <path d="M17.7792 83.0783C17.7729 82.4801 17.3752 82.0728 16.7943 82.0346C16.1314 81.99 15.6894 82.4037 15.6578 83.0592C15.62 83.7274 16.0682 84.0838 16.7122 84.1984C17.3499 84.1029 17.7855 83.7529 17.7792 83.0783Z" fill="#446381"/>
      <path d="M17.8359 67.0282C17.8296 66.2963 17.3877 65.8635 16.6616 65.889C16.0113 65.9145 15.6009 66.3409 15.6009 67.0027C15.6009 67.7409 16.0618 68.1037 16.7689 68.1737C17.4066 68.0464 17.8359 67.6964 17.8359 67.0282Z" fill="#446381"/>
      <path d="M24.9008 108.566C25.5511 108.611 25.9804 108.204 26.0057 107.548C26.0246 106.956 25.6332 106.549 25.065 106.511C24.4147 106.466 24.0485 106.88 23.9348 107.554C24.0169 108.108 24.3263 108.528 24.9008 108.566Z" fill="#446381"/>
      <path d="M34.1063 107.58C34.1252 106.861 33.7212 106.415 33.0077 106.39C32.2943 106.364 31.8586 106.772 31.8271 107.497C31.7955 108.223 32.2248 108.604 33.0077 108.725C33.6012 108.624 34.0937 108.324 34.1063 107.58Z" fill="#446381"/>
      <path d="M26.0752 99.4975C26.0752 98.842 25.6648 98.4092 25.0208 98.3901C24.3011 98.3774 23.8591 98.8293 23.8907 99.5548C23.9159 100.204 24.3642 100.548 25.0082 100.618C25.6459 100.503 26.0752 100.153 26.0752 99.4975Z" fill="#446381"/>
      <path d="M26.1257 91.5042C26.1573 90.7851 25.7595 90.3332 25.0461 90.2951C24.3326 90.2569 23.8907 90.6642 23.8465 91.3833C23.8023 92.1088 24.2316 92.497 24.9135 92.6116C25.6269 92.5734 26.0878 92.2297 26.1257 91.5042Z" fill="#446381"/>
      <path d="M17.7286 91.3134C17.6591 90.7343 17.2424 90.3588 16.6616 90.4097C16.0239 90.467 15.6261 90.8997 15.7082 91.5616C15.7777 92.1407 16.1944 92.4462 16.7689 92.4844C17.4003 92.3507 17.8107 91.9816 17.7286 91.3134Z" fill="#446381"/>
      <path d="M16.6111 100.388C17.1478 100.439 17.5329 100.197 17.5961 99.6311C17.6592 99.0265 17.3877 98.6256 16.75 98.5937C16.2007 98.5683 15.8851 98.8674 15.8219 99.4211C15.8156 99.9684 16.0555 100.331 16.6111 100.388Z" fill="#446381"/>
      <path d="M15.8914 107.408C15.8093 107.955 16.1124 108.318 16.6491 108.375C17.1289 108.426 17.4635 108.134 17.533 107.669C17.615 107.115 17.2994 106.803 16.788 106.689C16.2955 106.695 15.9609 106.937 15.8914 107.408Z" fill="#446381"/>
      <path d="M7.8415 74.9578C7.7973 75.4987 8.03722 75.8869 8.59914 75.9442C9.20525 76.0078 9.59669 75.7278 9.62195 75.0787C9.64089 74.525 9.34415 74.2068 8.80118 74.1495C8.24557 74.1495 7.892 74.3977 7.8415 74.9578Z" fill="#446381"/>
      <path d="M8.64949 67.9064C9.19246 67.9446 9.56497 67.6836 9.61548 67.1236C9.66599 66.5126 9.37556 66.1244 8.73788 66.1117C8.18228 66.099 7.88554 66.4108 7.82872 67.0409C7.85397 67.5054 8.08757 67.8746 8.64949 67.9064Z" fill="#446381"/>
      <path d="M7.90461 91.3325C7.84147 91.8798 8.14453 92.2362 8.69381 92.2744C9.17996 92.3126 9.50196 92.0071 9.55878 91.5425C9.62192 90.9952 9.29992 90.6834 8.7822 90.5815C8.28343 90.607 7.95512 90.8679 7.90461 91.3325Z" fill="#446381"/>
      <path d="M8.67474 59.5759C9.21772 59.6013 9.5776 59.334 9.61548 58.774C9.65968 58.1567 9.35031 57.7876 8.71263 57.7876C8.15702 57.7876 7.86659 58.1058 7.82871 58.6722C7.84765 59.2067 8.11282 59.544 8.67474 59.5759Z" fill="#446381"/>
      <path d="M7.86674 83.1356C7.87936 83.6383 8.15716 83.9438 8.64963 83.9756C9.20523 84.0138 9.55879 83.7274 9.58405 83.1547C9.6093 82.5819 9.29362 82.2828 8.65594 82.2255C8.19505 82.2892 7.85411 82.5501 7.86674 83.1356Z" fill="#446381"/>
      <path d="M9.46392 99.5356C9.49548 99.1029 9.21137 98.7974 8.80729 98.7592C8.32114 98.7147 7.99915 99.0202 7.99915 99.5165C8.00546 99.9366 8.3022 100.178 8.76941 100.248C9.12929 100.172 9.43235 99.962 9.46392 99.5356Z" fill="#446381"/>
      <path d="M0.788934 66.2709C0.359608 66.239 0.0565538 66.5254 0.0186721 66.9327C-0.0255232 67.4227 0.277532 67.7473 0.769994 67.7473C1.18669 67.741 1.42661 67.4418 1.48975 67.0218C1.44555 66.5954 1.20563 66.309 0.788934 66.2709Z" fill="#446381"/>
      <path d="M0.669056 59.4104C1.09838 59.4677 1.40775 59.1877 1.46457 58.7867C1.53402 58.2967 1.23729 57.9658 0.751136 57.9403C0.328123 57.9212 0.0882038 58.2203 -0.00018692 58.6467C0.0250676 59.0668 0.264984 59.3595 0.669056 59.4104Z" fill="#446381"/>
      <path d="M8.75052 108.121C9.06621 108.114 9.27456 107.936 9.30612 107.618C9.33769 107.243 9.16722 106.982 8.77578 106.956C8.39064 106.931 8.18229 107.134 8.14441 107.535C8.16966 107.917 8.35907 108.134 8.75052 108.121Z" fill="#446381"/>
      <path d="M0.814178 83.6892C1.13617 83.6638 1.30664 83.4601 1.31927 83.1419C1.33189 82.7537 1.12986 82.5246 0.738412 82.531C0.346967 82.531 0.163872 82.7601 0.157558 83.1356C0.208068 83.5365 0.435359 83.7211 0.814178 83.6892Z" fill="#446381"/>
      <path d="M0.126049 74.9577C0.0818534 75.3968 0.283894 75.6832 0.751105 75.6896C1.13624 75.6896 1.3509 75.4796 1.36984 75.0914C1.38878 74.7031 1.19306 74.4868 0.763731 74.4231C0.441734 74.4231 0.163931 74.5631 0.126049 74.9577Z" fill="#446381"/>
      <path d="M31.5871 75.0023C31.5619 75.8869 32.0985 76.4469 32.9824 76.4533C33.7969 76.4597 34.3209 75.9315 34.3525 75.1169C34.3841 74.2195 33.8158 73.755 32.9761 73.6277C32.1617 73.7486 31.6061 74.1813 31.5871 75.0023Z" fill="#446381"/>
      <path d="M34.3272 83.1991C34.3903 82.3782 33.8853 81.8118 33.096 81.7418C32.2184 81.659 31.6439 82.2063 31.6123 83.0846C31.5808 83.9055 32.1301 84.351 32.9193 84.5101C33.7148 84.4338 34.2641 84.0074 34.3272 83.1991Z" fill="#446381"/>
      <path d="M25.0272 84.3319C25.7407 84.3128 26.17 83.8865 26.1952 83.1737C26.2205 82.3909 25.7912 81.9072 25.0083 81.8881C24.2254 81.8691 23.815 82.3336 23.7518 83.1164C23.8276 83.8992 24.2443 84.351 25.0272 84.3319Z" fill="#446381"/>
      <path d="M23.7329 66.9964C23.7266 67.7791 24.1938 68.2628 24.9704 68.2692C25.747 68.2819 26.2268 67.8046 26.2332 67.0218C26.2458 66.239 25.7723 65.8126 24.9578 65.7235C24.2317 65.8063 23.7393 66.2072 23.7329 66.9964Z" fill="#446381"/>
      <path d="M24.9956 76.3196C25.7722 76.3069 26.2394 75.8296 26.2331 75.0468C26.2268 74.2641 25.7469 73.7931 24.9704 73.7995C24.1938 73.8058 23.7834 74.2959 23.7203 75.0723C23.796 75.8551 24.219 76.326 24.9956 76.3196Z" fill="#446381"/>
      <path d="M39.5864 99.4529C39.5611 100.274 40.0788 100.821 40.8744 100.859C41.752 100.898 42.3139 100.344 42.3076 99.4593C42.3013 98.6447 41.7457 98.2055 40.9501 98.0846C40.1609 98.1992 39.6116 98.6319 39.5864 99.4529Z" fill="#446381"/>
      <path d="M50.3197 107.605C50.3449 106.714 49.8146 106.154 48.9307 106.148C48.1225 106.135 47.5922 106.657 47.5543 107.472C47.5164 108.369 48.0783 108.834 49.0001 108.974C49.7136 108.827 50.2944 108.433 50.3197 107.605Z" fill="#446381"/>
      <path d="M31.5871 66.9008C31.524 67.7854 32.0543 68.3709 32.9319 68.4027C33.8095 68.4282 34.3588 67.8682 34.3525 66.9772C34.3462 66.1562 33.8032 65.7171 33.014 65.5835C32.1995 65.6662 31.6439 66.0926 31.5871 66.9008Z" fill="#446381"/>
      <path d="M41.0008 92.8598C41.8153 92.8343 42.333 92.3188 42.3583 91.5042C42.3835 90.6133 41.8595 90.0532 40.9756 90.0341C40.079 90.015 39.6308 90.5878 39.5171 91.4597C39.6434 92.3252 40.1043 92.8852 41.0008 92.8598Z" fill="#446381"/>
      <path d="M40.906 84.5611C41.8025 84.5802 42.3518 84.0965 42.3897 83.1865C42.4276 82.2128 41.9035 81.6527 40.9249 81.6527C40.0157 81.6527 39.5675 82.2064 39.4854 83.0974C39.5549 83.9883 39.9968 84.542 40.906 84.5611Z" fill="#446381"/>
      <path d="M48.8866 100.942C49.8589 100.955 50.4018 100.408 50.3703 99.4275C50.345 98.5175 49.8084 98.0211 48.9055 98.0338C47.9963 98.0465 47.5481 98.5811 47.4597 99.5548C47.5607 100.35 47.9711 100.929 48.8866 100.942Z" fill="#446381"/>
      <path d="M57.2269 108.993C58.1297 108.974 58.6475 108.458 58.6475 107.548C58.6475 106.562 58.0792 106.04 57.1132 106.084C56.2041 106.129 55.7811 106.702 55.7432 107.612C55.8505 108.49 56.324 109.012 57.2269 108.993Z" fill="#446381"/>
      <path d="M40.9251 68.5046C41.8153 68.5237 42.3709 68.0464 42.4277 67.1427C42.4908 66.1881 42.0236 65.5708 41.045 65.5198C40.0853 65.4689 39.5487 65.9844 39.4477 66.9518C39.4919 67.9127 39.9464 68.4918 40.9251 68.5046Z" fill="#446381"/>
      <path d="M42.4023 75.2505C42.4907 74.2896 42.0487 73.6659 41.0638 73.5895C40.1799 73.5195 39.5864 73.9586 39.4917 74.8751C39.3907 75.8424 39.8642 76.4088 40.8428 76.5615C41.7015 76.5361 42.3202 76.1733 42.4023 75.2505Z" fill="#446381"/>
      <path d="M40.9756 60.174C41.8721 60.1677 42.4025 59.6649 42.434 58.7612C42.4719 57.7939 41.9731 57.2147 41.0008 57.1829C40.0285 57.1575 39.5234 57.6984 39.454 58.6657C39.5108 59.6267 40.0033 60.1804 40.9756 60.174Z" fill="#446381"/>
      <path d="M50.4207 91.4661C50.4333 90.5688 49.9598 90.0088 49.0632 89.9515C48.1162 89.8879 47.5037 90.3652 47.4532 91.3516C47.4027 92.3189 47.9141 92.8599 48.8738 92.9553C49.8335 92.9171 50.4017 92.4526 50.4207 91.4661Z" fill="#446381"/>
      <path d="M57.0879 101.006C58.035 101.069 58.6474 100.586 58.7105 99.6121C58.7737 98.6575 58.2938 98.0401 57.3279 97.9765C56.3808 97.9129 55.8126 98.4029 55.6863 99.3766C55.6863 100.318 56.1156 100.942 57.0879 101.006Z" fill="#446381"/>
      <path d="M47.3648 83.0146C47.3207 84.0074 47.9268 84.6628 48.9117 84.6883C49.8335 84.7138 50.4522 84.1155 50.5027 83.1991C50.5532 82.2 49.9345 81.6399 48.9559 81.4999C48.0404 81.5954 47.409 82.0981 47.3648 83.0146Z" fill="#446381"/>
      <path d="M48.9307 76.6697C49.8461 76.6825 50.4712 76.0842 50.5343 75.1742C50.5975 74.175 49.9913 73.5068 49.019 73.4495C48.0341 73.3922 47.4785 74.035 47.308 75.0342C47.4154 76.0015 47.9394 76.657 48.9307 76.6697Z" fill="#446381"/>
      <path d="M57.1699 93.1017C58.1549 93.0635 58.742 92.4907 58.8494 91.517C58.9504 90.6388 58.0538 89.716 57.1762 89.786C56.1976 89.8624 55.6736 90.4733 55.5536 91.3643C55.5473 92.2807 56.3365 93.1335 57.1699 93.1017Z" fill="#446381"/>
      <path d="M48.8929 60.3332C49.8778 60.3014 50.465 59.7286 50.585 58.7549C50.686 57.883 49.7894 56.9539 48.9182 57.0175C47.9395 57.0939 47.4155 57.6985 47.2892 58.5894C47.2766 59.5059 48.0595 60.3586 48.8929 60.3332Z" fill="#446381"/>
      <path d="M48.9685 65.3671C47.9899 65.348 47.3964 65.9717 47.2891 66.9453C47.1943 67.8236 48.0909 68.7464 48.9685 68.67C49.9471 68.5873 50.4711 67.9827 50.5974 67.009C50.4711 66.0417 49.9471 65.3862 48.9685 65.3671Z" fill="#446381"/>
      <path d="M58.8803 83.1037C58.8866 82.1173 58.2742 81.4745 57.3082 81.4236C56.2602 81.3663 55.5846 81.99 55.5341 83.0401C55.4836 84.1029 56.1528 84.6629 57.1756 84.8284C58.1984 84.7011 58.8677 84.1665 58.8803 83.1037Z" fill="#446381"/>
      <path d="M57.2516 76.7587C58.2934 76.7205 58.9247 76.0587 58.8932 75.0086C58.8616 73.9585 58.205 73.3285 57.1569 73.3539C56.1088 73.3794 55.5848 74.0731 55.4775 75.1104C55.6479 76.1287 56.1972 76.7969 57.2516 76.7587Z" fill="#446381"/>
      <path d="M57.2077 68.7274C58.262 68.721 58.8555 68.1037 58.9187 67.0472C58.9755 66.0354 58.1358 65.2144 57.1382 65.2844C56.0775 65.3608 55.5598 66.0035 55.4714 67.06C55.604 68.0782 56.1407 68.7401 57.2077 68.7274Z" fill="#446381"/>
      <path d="M58.9189 58.7231C58.9063 57.6603 58.3381 57.0366 57.29 56.9475C56.2924 56.8648 55.4527 57.6857 55.4969 58.6912C55.5411 59.7668 56.1662 60.295 57.0122 60.4032C58.1423 60.4159 58.9252 59.6777 58.9189 58.7231Z" fill="#446381"/>
      </g>
      <defs>
      <clipPath id="clip0_39_2430">
      <rect width="58.9191" height="52.0452" fill="white" transform="translate(63.8215)"/>
      </clipPath>
      <clipPath id="clip1_39_2430">
      <rect width="58.9191" height="52.0452" fill="white" transform="matrix(-1 0 0 1 58.9189 0)"/>
      </clipPath>
      <clipPath id="clip2_39_2430">
      <rect width="58.9191" height="52.0452" fill="white" transform="matrix(1 0 0 -1 63.8215 108.993)"/>
      </clipPath>
      <clipPath id="clip3_39_2430">
      <rect width="58.9191" height="52.0452" fill="white" transform="matrix(-1 0 0 -1 58.9189 108.993)"/>
      </clipPath>
      </defs>
   </g>

   <!-- <svg width="191" height="152" viewBox="0 0 191 152" fill="none" xmlns="http://www.w3.org/2000/svg"> -->
   <g id="ringsForPrice">
      <path fill-rule="evenodd" clip-rule="evenodd" d="M173.932 8.26875C157.284 -1.83451 131.107 -1.82508 114.088 16.7173C109.489 21.7287 105.705 26.2632 102.27 30.3803L102.269 30.3817C100.51 32.4903 98.8419 34.4894 97.2024 36.387C92.3725 41.9773 87.8148 46.655 81.987 50.5102C70.328 58.223 53.677 62.5843 19.7688 64.6393C3.01146 65.6549 -7.92823 74.4597 -13.2227 86.9322C-14.0563 88.896 -14.7504 90.9518 -15.305 93.0836C-9.34046 85.6616 -0.344826 80.775 11.6945 80.045C43.8892 78.0928 59.4869 73.9539 70.3372 66.7724C75.7641 63.1806 80.0262 58.8125 84.5956 53.5211C86.1339 51.7397 87.7098 49.8501 89.3772 47.8508L89.3774 47.8505L89.3779 47.8499C92.6513 43.925 96.2767 39.5778 100.66 34.7991C117.194 16.7754 142.597 16.7848 158.75 26.5926C166.836 31.5017 172.656 38.8971 173.855 47.7722C175.056 56.6555 171.611 66.9012 161.413 77.4734C155.221 83.892 154.717 93.8475 155.627 105.599C155.881 108.877 156.244 112.291 156.617 115.79L156.617 115.79C157.571 124.749 158.585 134.27 157.971 143.529C157.293 153.752 154.63 163.718 147.713 172.382C150.598 170.641 153.166 168.795 155.449 166.859C167.568 156.586 171.73 143.727 172.62 130.323C173.261 120.678 172.208 110.805 171.207 101.413L171.207 101.413L171.207 101.411L171.207 101.41C170.812 97.7086 170.426 94.0817 170.154 90.5732C169.199 78.2442 169.659 67.3157 176.528 60.1981C187.112 49.2315 190.553 38.7524 189.343 29.8068C188.133 20.8529 182.247 13.3151 173.932 8.26875ZM-14.1432 86.5415C-15.2888 89.2402 -16.1754 92.1043 -16.8046 95.0942C-18.2481 97.1812 -19.4778 99.4371 -20.4937 101.832C-21.7663 104.831 -22.7027 108.045 -23.3053 111.414C-30.7464 115.029 -36.0322 121.033 -39.1696 128.43C-42.516 136.32 -43.411 145.774 -41.9062 155.578C-54.3327 157.782 -62.6778 165.224 -66.9581 175.299C-71.7756 186.638 -71.4285 201.265 -66.0772 215.446C-55.3643 243.837 -24.5603 270.565 25.4849 265.998C54.8677 263.317 72.9772 256.423 83.9445 247.134C94.9332 237.827 98.6883 226.17 99.4879 214.137C99.5668 212.95 99.6168 211.758 99.6423 210.564C105.527 207.925 110.336 204.904 114.25 201.584C118.771 197.747 122.088 193.519 124.488 189.032C131.347 186.105 136.875 182.708 141.312 178.944C142.943 177.561 144.425 176.13 145.771 174.655C149.717 172.484 153.137 170.13 156.095 167.622C168.482 157.122 172.716 143.972 173.618 130.389C174.264 120.652 173.197 110.64 172.193 101.218L172.193 101.217C171.801 97.5359 171.418 93.9451 171.151 90.496C170.194 78.1361 170.723 67.6531 177.247 60.8925C187.976 49.7761 191.596 39.0067 190.334 29.6728C189.074 20.3472 182.955 12.5745 174.451 7.41386C157.461 -2.89685 130.742 -2.90627 113.352 16.0412C108.738 21.0676 104.923 25.6395 101.479 29.7678L101.479 29.7679L101.478 29.7684L101.476 29.7705L101.476 29.771C99.7222 31.8729 98.0643 33.8598 96.4457 35.7332C91.6365 41.2996 87.1493 45.8962 81.4353 49.6762C70.0105 57.234 53.5899 61.5877 19.7083 63.6412C2.57064 64.6798 -8.70113 73.7212 -14.1432 86.5415ZM-66.0378 175.69C-61.8917 165.931 -53.8319 158.713 -41.7468 156.566C-41.0308 160.79 -39.8718 165.071 -38.2737 169.313C-37.8769 170.367 -37.453 171.418 -37.002 172.465C-37.3667 173.152 -37.7034 173.859 -38.012 174.583C-41.6341 183.09 -41.3691 194.049 -37.3544 204.665C-29.3147 225.923 -6.20221 245.92 31.3181 242.504C53.3256 240.5 66.9121 235.347 75.1506 228.384C79.568 224.651 82.4296 220.414 84.2279 215.901C89.6128 214.481 94.3927 212.841 98.6316 211.009C98.604 212.032 98.5577 213.053 98.4901 214.071C97.7024 225.925 94.0193 237.29 83.2982 246.371C72.556 255.469 54.6843 262.33 25.3941 265.003C-24.1971 269.528 -54.5851 243.07 -65.1416 215.093C-70.4249 201.092 -70.7318 186.739 -66.0378 175.69ZM84.6616 214.751C89.9004 213.337 94.5432 211.713 98.6542 209.909C98.7171 205.47 98.4461 201.005 98.0547 196.6C94.5537 197.24 90.8562 197.808 86.9516 198.298C86.9812 200.088 86.9491 201.876 86.831 203.65C86.579 207.434 85.9353 211.172 84.6616 214.751ZM85.9545 198.422C85.9802 200.147 85.9473 201.87 85.8332 203.584C85.5708 207.525 84.8782 211.39 83.4813 215.063C75.3655 217.169 65.8554 218.782 54.7235 219.8C6.39987 224.217 -23.9931 199.651 -35.8905 172.514C-32.0751 165.647 -25.2639 160.938 -15.3572 160.339C-14.1594 160.267 -12.994 160.19 -11.8597 160.109C3.72057 184.163 34.0551 203.27 78.6265 199.198C81.1457 198.968 83.5876 198.709 85.9545 198.422ZM86.9287 197.293C90.8125 196.803 94.4873 196.237 97.9637 195.6C97.7415 193.208 97.4885 190.836 97.239 188.497L97.2389 188.497V188.496L97.2052 188.181C94.9174 188.452 92.5636 188.698 90.1418 188.919C88.8797 189.035 87.6284 189.132 86.388 189.213C86.6419 191.877 86.8505 194.585 86.9287 197.293ZM85.389 189.274C85.6468 191.965 85.8576 194.691 85.933 197.417C83.5459 197.707 81.0809 197.969 78.5355 198.202C34.6315 202.213 4.7517 183.561 -10.7204 160.025C-5.46142 159.628 -0.887932 159.13 3.12902 158.522C20.2751 177.668 47.7944 191.437 85.389 189.274ZM86.291 188.217C87.5332 188.137 88.7865 188.039 90.0508 187.924C92.4686 187.703 94.8174 187.457 97.0994 187.186C96.7994 184.361 96.5142 181.589 96.3053 178.895C95.4595 167.984 95.8625 158.285 101.968 151.964C111.336 142.265 114.374 133.007 113.305 125.111C112.236 117.207 107.035 110.548 99.6796 106.088C84.9505 97.157 61.791 97.1665 46.7357 113.556C42.6619 117.991 39.312 122.003 36.2694 125.646L36.2687 125.647C34.7098 127.514 33.2315 129.284 31.7778 130.965C27.4978 135.915 23.4561 140.06 18.2868 143.477C13.2323 146.818 7.12158 149.448 -1.31261 151.477C0.188919 153.515 1.79795 155.51 3.51424 157.451C13.9264 155.828 20.4165 153.446 25.4366 150.136C29.2069 147.649 32.1708 144.624 35.3566 140.948C36.4271 139.713 37.5256 138.4 38.6885 137.011C40.9746 134.28 43.5098 131.251 46.5717 127.925C58.1671 115.33 75.9775 115.34 87.302 122.191C92.9731 125.622 97.071 130.801 97.9158 137.03C98.7618 143.267 96.33 150.436 89.1906 157.811C84.9221 162.22 84.5596 169.075 85.1948 177.251C85.3712 179.522 85.6244 181.89 85.8842 184.32V184.32C86.0214 185.603 86.1604 186.904 86.291 188.217ZM4.30928 158.338C14.4417 156.703 20.9184 154.313 25.9871 150.97C29.8712 148.409 32.9057 145.303 36.1123 141.603C37.2033 140.344 38.3114 139.02 39.4792 137.625C41.7557 134.905 44.2594 131.913 47.3074 128.602C58.531 116.412 75.8008 116.402 86.7844 123.047C92.2674 126.364 96.1307 131.308 96.9249 137.164C97.718 143.012 95.4668 149.89 88.4721 157.115C83.8578 161.882 83.5649 169.183 84.1978 177.329C84.3789 179.659 84.636 182.064 84.8981 184.515C85.031 185.759 85.1652 187.014 85.2915 188.278C48.3499 190.393 21.2817 177.006 4.30928 158.338ZM2.33953 157.628C0.666946 155.709 -0.903069 153.737 -2.37023 151.725C-5.9372 152.543 -9.91019 153.259 -14.3787 153.881C-13.4408 155.63 -12.4277 157.361 -11.3396 159.068C-6.14575 158.686 -1.62762 158.209 2.33953 157.628ZM-12.4716 159.149C-13.5314 157.462 -14.5193 155.752 -15.4352 154.025C-21.5839 154.846 -28.6516 155.495 -36.8598 155.992C-38.2022 156.074 -39.5023 156.211 -40.7603 156.403C-40.0559 160.557 -38.9149 164.774 -37.3379 168.961C-37.0356 169.763 -36.7172 170.565 -36.3828 171.365C-32.3373 164.563 -25.3488 159.941 -15.4175 159.341C-14.4126 159.28 -13.4308 159.216 -12.4716 159.149ZM-36.4821 173.645C-24.1941 200.875 6.48425 225.213 54.8145 220.796C65.659 219.804 74.9929 218.248 83.0173 216.214C81.2593 220.338 78.5558 224.197 74.5052 227.621C66.4917 234.393 53.1428 239.513 31.2274 241.508C-5.84039 244.882 -28.5365 225.154 -36.4191 204.311C-40.3655 193.876 -40.5901 183.19 -37.0919 174.975C-36.8999 174.524 -36.6967 174.08 -36.4821 173.645ZM113.603 200.821C109.863 203.994 105.273 206.9 99.6589 209.459C99.6975 205.106 99.4258 200.726 99.0422 196.416C108.382 194.654 116.3 192.368 123.001 189.65C120.711 193.632 117.65 197.387 113.603 200.821ZM123.771 188.25C116.929 191.137 108.739 193.563 98.9511 195.416C98.7277 193.014 98.4742 190.637 98.2251 188.302L98.225 188.301L98.1993 188.061C108.965 186.74 118.248 184.869 126.243 182.533C125.564 184.479 124.747 186.387 123.771 188.25ZM126.629 181.376C118.554 183.784 109.115 185.714 98.0934 187.066C97.7933 184.241 97.5088 181.481 97.3023 178.818C96.4541 167.876 96.9267 158.622 102.687 152.659C112.2 142.81 115.417 133.261 114.296 124.977C113.176 116.701 107.742 109.807 100.198 105.233C85.1274 96.0948 61.4263 96.0853 45.9993 112.88C41.9116 117.33 38.5303 121.379 35.4781 125.033L35.4778 125.034C33.9236 126.895 32.4547 128.654 31.0214 130.311C26.7621 135.237 22.791 139.301 17.7354 142.643C12.7163 145.96 6.60577 148.58 -1.94953 150.6C-6.32356 144.502 -9.74654 138.036 -12.2121 131.497C-14.9212 124.311 -16.4726 117.042 -16.8626 110.077C-14.3018 109.383 -11.5397 108.932 -8.57491 108.753C21.969 106.9 36.9788 102.968 47.4922 96.0064C52.7471 92.527 56.8559 88.3059 61.2075 83.2648C62.685 81.5532 64.1875 79.7507 65.7721 77.8499L65.7737 77.8481L65.774 77.8476L65.7743 77.8473L65.7745 77.847L65.7754 77.8459C68.8688 74.1352 72.2747 70.0495 76.4163 65.533C91.727 48.8364 115.279 48.8271 130.257 57.9251C137.738 62.4689 143.028 69.2529 144.116 77.3071C145.203 85.3529 142.112 94.786 132.586 104.665C126.381 111.1 125.971 120.974 126.831 132.088C127.076 135.254 127.424 138.526 127.78 141.865V141.866V141.866V141.866L127.78 141.866C128.682 150.331 129.629 159.226 129.052 167.916C128.748 172.508 128.017 177.029 126.629 181.376ZM-13.1478 131.85C-10.6967 138.351 -7.31291 144.775 -3.0044 150.844C-6.52735 151.637 -10.455 152.333 -14.8754 152.94C-16.3069 150.182 -17.5528 147.384 -18.6124 144.572C-22.8141 133.422 -24.0836 122.063 -22.4082 112.094C-20.9699 111.423 -19.45 110.842 -17.8479 110.359C-17.4307 117.369 -15.8587 124.659 -13.1478 131.85ZM-19.5482 144.925C-18.5154 147.666 -17.3083 150.392 -15.9277 153.081C-21.9568 153.875 -28.8836 154.508 -36.9203 154.994C-38.296 155.078 -39.6291 155.219 -40.9197 155.416C-42.398 145.771 -41.5105 136.511 -38.249 128.82C-35.2978 121.862 -30.3969 116.172 -23.5078 112.633C-25.0427 122.632 -23.7017 133.903 -19.5482 144.925ZM125.205 187.629C131.47 184.85 136.554 181.669 140.665 178.182C141.452 177.514 142.204 176.835 142.922 176.145C138.407 178.389 133.265 180.413 127.418 182.184C126.805 184.031 126.073 185.849 125.205 187.629ZM127.785 181.025C134.493 178.954 140.235 176.545 145.143 173.859C153.239 164.923 156.248 154.385 156.973 143.463C157.581 134.296 156.582 124.913 155.631 115.985C155.256 112.464 154.888 109.014 154.63 105.676C153.722 93.9556 154.157 83.5548 160.693 76.7792C170.747 66.3568 174.012 56.4013 172.864 47.9061C171.715 39.4026 166.128 32.2421 158.231 27.4473C142.42 17.8473 117.56 17.8566 101.397 35.4751C97.0272 40.2391 93.4329 44.5491 90.169 48.4631L90.1688 48.4633L90.1681 48.4642C88.4961 50.4691 86.9109 52.37 85.3524 54.1747C80.7623 59.4901 76.4297 63.9392 70.8891 67.6063C59.8045 74.9429 43.9764 79.0894 11.755 81.0432C-0.942467 81.8131 -10.1214 87.2941 -15.8668 95.4971C-16.7513 99.7871 -17.0992 104.347 -16.9116 109.055C-14.3456 108.376 -11.5869 107.933 -8.63546 107.754C21.8818 105.903 36.661 101.979 46.9401 95.1726C52.0814 91.7685 56.1197 87.6285 60.4505 82.6114C61.9077 80.9233 63.4009 79.1322 64.9807 77.2372L64.9822 77.2354L64.9825 77.235L64.9831 77.2343C68.0862 73.5122 71.5236 69.389 75.6792 64.8572C91.3616 47.7552 115.456 47.7646 130.777 57.0705C138.446 61.7287 143.969 68.7477 145.107 77.1732C146.246 85.607 142.976 95.3302 133.306 105.36C127.445 111.437 126.965 120.866 127.828 132.01C128.068 135.117 128.413 138.354 128.766 141.671C129.671 150.167 130.633 159.2 130.05 167.982C129.756 172.412 129.07 176.791 127.785 181.025ZM-17.9009 109.332C-18.0754 105.327 -17.8697 101.421 -17.2807 97.6856C-18.14 99.1299 -18.9041 100.645 -19.5732 102.222C-20.7278 104.944 -21.6005 107.851 -22.1917 110.898C-20.8297 110.297 -19.3995 109.773 -17.9009 109.332Z" fill="white" fill-opacity="0.2"/>
   </g>

   <!-- <svg width="528" height="293" viewBox="0 0 528 293" fill="none" xmlns="http://www.w3.org/2000/svg"></svg> -->
   <g id="textVr">
      <path opacity="0.04" d="M168.126 285.058L160.519 282.581L160.499 282.643L160.48 282.705L168.126 285.058ZM257.16 11.686L264.767 14.1634L264.782 14.1179L264.796 14.0722L257.16 11.686ZM195.714 8.75999L203.373 11.0723L203.39 11.0152L203.406 10.9578L195.714 8.75999ZM130.088 226.12L122.434 228.446L130.112 253.718L137.747 228.432L130.088 226.12ZM64.044 8.75999L56.3518 10.9578L56.3701 11.0219L56.3895 11.0858L64.044 8.75999ZM2.598 11.686L-5.03784 14.0722L-5.02356 14.1179L-5.00873 14.1634L2.598 11.686ZM91.632 285.058L99.2782 282.705L99.259 282.643L99.2387 282.581L91.632 285.058ZM102.918 301H156.84V285H102.918V301ZM156.84 301C160.881 301 165.024 300.131 168.614 297.638C172.266 295.101 174.529 291.453 175.772 287.411L160.48 282.705C160.051 284.097 159.597 284.42 159.487 284.496C159.316 284.615 158.651 285 156.84 285V301ZM175.733 287.535L264.767 14.1634L249.553 9.20856L160.519 282.581L175.733 287.535ZM264.796 14.0722C266.33 9.16418 266.312 3.46219 262.869 -1.21059C259.427 -5.88239 253.979 -7.60002 248.8 -7.60002V8.39998C249.735 8.39998 250.192 8.55343 250.31 8.60307C250.394 8.63802 250.2 8.56862 249.988 8.28057C249.776 7.99246 249.763 7.78221 249.771 7.85952C249.782 7.97462 249.794 8.43626 249.524 9.29978L264.796 14.0722ZM248.8 -7.60002H207V8.39998H248.8V-7.60002ZM207 -7.60002C203.072 -7.60002 198.944 -6.68767 195.347 -4.16003C191.683 -1.58588 189.277 2.16917 188.022 6.56223L203.406 10.9578C203.823 9.49882 204.343 9.07387 204.546 8.93102C204.815 8.74163 205.494 8.39998 207 8.39998V-7.60002ZM188.055 6.44771L122.429 223.808L137.747 228.432L203.373 11.0723L188.055 6.44771ZM137.742 223.794L71.6985 6.43422L56.3895 11.0858L122.434 228.446L137.742 223.794ZM71.7362 6.56223C70.481 2.16918 68.0745 -1.58588 64.4113 -4.16003C60.8143 -6.68767 56.6864 -7.60002 52.758 -7.60002V8.39998C54.2636 8.39998 54.9427 8.74163 55.2122 8.93102C55.4155 9.07387 55.935 9.49882 56.3518 10.9578L71.7362 6.56223ZM52.758 -7.60002H10.958V8.39998H52.758V-7.60002ZM10.958 -7.60002C5.77925 -7.60002 0.331412 -5.88239 -3.11095 -1.2106C-6.55404 3.46217 -6.5716 9.16417 -5.03784 14.0722L10.2338 9.29978C9.96399 8.43626 9.97625 7.97462 9.98721 7.85952C9.99458 7.78222 9.98223 7.99248 9.76995 8.28058C9.5577 8.56863 9.36407 8.63802 9.44762 8.60307C9.56628 8.55343 10.0227 8.39998 10.958 8.39998V-7.60002ZM-5.00873 14.1634L84.0253 287.535L99.2387 282.581L10.2047 9.20856L-5.00873 14.1634ZM83.9858 287.411C85.2954 291.667 87.7703 295.253 91.3854 297.695C94.9276 300.089 98.9892 301 102.918 301V285C101.413 285 100.667 284.657 100.343 284.438C100.092 284.268 99.6406 283.883 99.2782 282.705L83.9858 287.411ZM522.939 280.878L529.186 275.88L529.159 275.847L529.132 275.814L522.939 280.878ZM442.265 182.23L438.837 175.002L429.602 179.382L436.073 187.294L442.265 182.23ZM346.543 191.844V183.844H338.543V191.844H346.543ZM382.491 191.844L388.69 186.787L386.289 183.844H382.491V191.844ZM460.239 287.148L466.709 282.443L466.579 282.263L466.438 282.091L460.239 287.148ZM346.543 54.322V46.322H338.543V54.322H346.543ZM346.543 140.848H338.543V148.848H346.543V140.848ZM529.132 275.814L448.458 177.166L436.073 187.294L516.747 285.942L529.132 275.814ZM445.694 189.458C480.888 172.763 505.023 137.467 505.023 97.794H489.023C489.023 130.853 468.851 160.765 438.837 175.002L445.694 189.458ZM505.023 97.794C505.023 39.4762 457.992 -7.60002 400.047 -7.60002V8.39998C449.111 8.39998 489.023 48.2678 489.023 97.794H505.023ZM400.047 -7.60002H346.543V8.39998H400.047V-7.60002ZM346.543 -7.60002H298.891V8.39998H346.543V-7.60002ZM298.891 -7.60002C294.133 -7.60002 289.393 -6.12859 285.902 -2.41267C282.485 1.22507 281.277 5.94049 281.277 10.432H297.277C297.277 8.65347 297.742 8.35288 297.564 8.54214C297.491 8.61949 297.449 8.61552 297.566 8.57134C297.711 8.51699 298.115 8.39998 298.891 8.39998V-7.60002ZM281.277 10.432V283.386H297.277V10.432H281.277ZM281.277 283.386C281.277 287.885 282.494 292.619 286.076 296.201C289.658 299.783 294.392 301 298.891 301V285C297.121 285 297.047 284.545 297.39 284.887C297.733 285.23 297.277 285.157 297.277 283.386H281.277ZM298.891 301H336.511V285H298.891V301ZM336.511 301C341.089 301 345.925 299.852 349.602 296.29C353.323 292.686 354.543 287.887 354.543 283.386H338.543C338.543 284.262 338.424 284.722 338.365 284.892C338.318 285.025 338.328 284.935 338.469 284.798C338.802 284.476 338.621 285 336.511 285V301ZM354.543 283.386V191.844H338.543V283.386H354.543ZM346.543 199.844H382.491V183.844H346.543V199.844ZM376.293 196.901L454.041 292.205L466.438 282.091L388.69 186.787L376.293 196.901ZM453.77 291.853C456.122 295.089 458.961 297.577 462.529 299.132C465.975 300.634 469.504 301 472.779 301V285C470.621 285 469.552 284.739 468.922 284.465C468.415 284.243 467.7 283.805 466.709 282.443L453.77 291.853ZM472.779 301H517.087V285H472.779V301ZM517.087 301C522.783 301 529.365 298.938 532.283 292.664C535.154 286.492 532.624 280.177 529.186 275.88L516.693 285.876C517.031 286.299 517.244 286.642 517.373 286.889C517.437 287.012 517.477 287.105 517.501 287.17C517.526 287.234 517.533 287.266 517.533 287.265C517.533 287.264 517.5 287.123 517.519 286.867C517.539 286.603 517.612 286.269 517.776 285.916C517.94 285.562 518.155 285.279 518.365 285.076C518.568 284.879 518.72 284.801 518.741 284.79C518.759 284.782 518.651 284.836 518.372 284.893C518.092 284.949 517.671 285 517.087 285V301ZM346.543 62.322H400.047V46.322H346.543V62.322ZM400.047 62.322C416.75 62.322 431.757 77.3272 431.757 97.794H447.757C447.757 69.7728 426.817 46.322 400.047 46.322V62.322ZM431.757 97.794C431.757 118.156 416.847 132.848 400.047 132.848V148.848C426.72 148.848 447.757 125.92 447.757 97.794H431.757ZM400.047 132.848H346.543V148.848H400.047V132.848ZM354.543 140.848V54.322H338.543V140.848H354.543Z" fill="#EB8382"/>
   </g>



   <!-- <svg width="46" height="46" viewBox="0 0 46 46" fill="none" xmlns="http://www.w3.org/2000/svg"> -->
   <g id="ringChekMark">
      <circle cx="23.2709" cy="23.2204" r="22.5966" fill="#FAC7B5"/>
      <circle cx="23.2711" cy="23.2203" r="16.4339" fill="#EB8382"/>
      <path d="M21.3131 24.8723L18.1274 21.6856L18.1274 21.6856C17.928 21.4862 17.6576 21.3742 17.3756 21.3742C17.0936 21.3742 16.8232 21.4862 16.6238 21.6856C16.4244 21.885 16.3124 22.1554 16.3124 22.4374C16.3124 22.7194 16.4244 22.9898 16.6238 23.1892L20.5608 27.1262L21.3131 24.8723ZM21.3131 24.8723L28.4358 17.7485C28.5345 17.6496 28.6518 17.5711 28.7809 17.5175C28.91 17.464 29.0483 17.4364 29.1881 17.4364C29.3278 17.4364 29.4662 17.464 29.5953 17.5175C29.7242 17.571 29.8413 17.6494 29.9399 17.7481C30.0386 17.8467 30.117 17.9638 30.1705 18.0927C30.224 18.2218 30.2516 18.3601 30.2516 18.4999C30.2516 18.6396 30.224 18.778 30.1705 18.9071C30.117 19.036 30.0386 19.1531 29.9399 19.2517L21.3131 24.8723ZM20.9059 27.3573L20.9059 27.3573C20.777 27.3038 20.6599 27.2254 20.5613 27.1267L20.9059 27.3573ZM20.9059 27.3573C21.035 27.4108 21.1733 27.4384 21.3131 27.4384C21.4528 27.4384 21.5912 27.4108 21.7203 27.3573C21.8492 27.3038 21.9663 27.2254 22.0649 27.1267L20.9059 27.3573ZM22.0653 27.1263L29.9394 19.2521L22.0653 27.1263Z" fill="white" stroke="white"/>
   </g>

   <g id="goTop" >
      <g fill="none" fill-rule="evenodd">

         <path d="m0 0h32v32h-32z"/>

         <path d="m16 0c8.836556 0 16 7.163444 16 16s-7.163444 16-16 16-16-7.163444-16-16 7.163444-16 16-16zm0 2c-7.7319865 0-14 6.2680135-14 14s6.2680135 14 14 14 14-6.2680135 14-14-6.2680135-14-14-14zm.0790314 9.1650801c.2359046.0138648.4678334.1109182.6480754.2911601l5.6568542 5.6568543c.3905243.3905243.3905243 1.0236893 0 1.4142135-.3905243.3905243-1.0236892.3905243-1.4142135 0l-4.9708933-4.9712279-4.9717474 4.9712279c-.3905243.3905243-1.0236893.3905243-1.41421358 0-.39052429-.3905242-.39052429-1.0236892 0-1.4142135l5.65685428-5.6568543c.1802419-.1802419.4121707-.2772953.6480754-.2911601z" fill="#FAC7B5" fill-rule="nonzero"/>
      </g>  
   </g>

   <!-- <svg width="20" height="18" viewBox="0 0 20 18" fill="none" xmlns="http://www.w3.org/2000/svg"> -->
   <g id="twitter">
      <path d="M17.9468 4.92565C17.9597 5.10354 17.9597 5.28142 17.9597 5.4593C17.9703 6.99386 17.6758 8.51523 17.0934 9.93502C16.511 11.3548 15.6523 12.6447 14.5672 13.7299C13.482 14.815 12.1921 15.6737 10.7723 16.2561C9.35254 16.8385 7.83118 17.1329 6.29661 17.1224C4.06378 17.1269 1.87721 16.4861 0 15.2771C0.328762 15.3136 0.659374 15.3307 0.990142 15.3286C2.83537 15.3335 4.62844 14.7166 6.08015 13.5776C5.22492 13.5626 4.39572 13.2808 3.70835 12.7717C3.02098 12.2627 2.50975 11.5516 2.24604 10.7379C2.50195 10.7787 2.76058 10.8002 3.01972 10.8022C3.38132 10.8006 3.74131 10.7538 4.0913 10.6629C3.16423 10.4735 2.33123 9.96918 1.73357 9.23559C1.13592 8.502 0.810413 7.58427 0.812259 6.63804V6.58875C1.3805 6.90607 2.01573 7.08452 2.6661 7.10954C1.79543 6.52935 1.17908 5.63869 0.942882 4.61943C0.706688 3.60017 0.868473 2.52919 1.3952 1.62518C2.4252 2.89194 3.70992 3.92811 5.16606 4.66651C6.6222 5.40492 8.21726 5.82908 9.84784 5.91151C9.78234 5.60286 9.74859 5.28832 9.74711 4.9728C9.74877 4.1508 9.99723 3.34823 10.4603 2.66906C10.9234 1.9899 11.5797 1.46544 12.3443 1.16362C13.1089 0.861799 13.9465 0.796529 14.7486 0.976264C15.5508 1.156 16.2804 1.57246 16.8431 2.17169C17.7612 1.99483 18.6415 1.6598 19.4449 1.18155C19.1391 2.12879 18.4982 2.93195 17.6425 3.44044C18.456 3.34479 19.2506 3.12808 20 2.79749C19.4404 3.61746 18.7462 4.33697 17.9468 4.92565Z" fill="#446381"/>
   </g>

   <!-- <svg width="12" height="20" viewBox="0 0 12 20" fill="none" xmlns="http://www.w3.org/2000/svg"> -->
   <g id="facebook">
      <path d="M10.6525 11.256L11.2072 7.63887H7.73568V5.28314C7.71154 5.01301 7.74841 4.74091 7.84359 4.48695C7.93877 4.23299 8.08982 4.00367 8.28556 3.81595C8.4813 3.62823 8.71673 3.4869 8.97445 3.40242C9.23216 3.31794 9.50557 3.29247 9.77446 3.32789H11.3528V0.256885C10.4263 0.107301 9.49005 0.0257038 8.55162 0.0127459C7.90592 -0.0364188 7.25731 0.0570303 6.65175 0.286471C6.04619 0.515912 5.49851 0.875728 5.0475 1.34042C4.5965 1.80512 4.25322 2.36332 4.04198 2.97547C3.83075 3.58762 3.75673 4.23873 3.82518 4.88267V7.63887H0.647095V11.256H3.82518V20H7.73568V11.256H10.6525Z" fill="#446381"/>
   </g>

   <!-- <svg width="20" height="20" viewBox="0 0 20 20" fill="none" xmlns="http://www.w3.org/2000/svg"> -->
   <g id="instagram">
      <path d="M10.0125 4.87657C8.99809 4.87509 8.00607 5.17453 7.16192 5.73701C6.31778 6.29949 5.65944 7.09972 5.27023 8.03646C4.88102 8.9732 4.77841 10.0043 4.9754 10.9994C5.17238 11.9945 5.66011 12.9088 6.37685 13.6266C7.0936 14.3444 8.00717 14.8334 9.00195 15.0319C9.99673 15.2303 11.028 15.1292 11.9653 14.7414C12.9026 14.3535 13.7038 13.6964 14.2675 12.853C14.8313 12.0097 15.1321 11.0181 15.1321 10.0037C15.1331 9.33079 15.0014 8.66424 14.7446 8.04223C14.4877 7.42022 14.1108 6.85494 13.6353 6.37874C13.1598 5.90254 12.5951 5.52476 11.9734 5.267C11.3518 5.00924 10.6854 4.87657 10.0125 4.87657ZM10.0125 13.336C9.35309 13.3375 8.70809 13.1434 8.15911 12.7781C7.61013 12.4128 7.18186 11.8929 6.92849 11.2842C6.67513 10.6754 6.60807 10.0052 6.7358 9.35826C6.86353 8.71137 7.1803 8.11691 7.64603 7.65013C8.11176 7.18335 8.7055 6.86523 9.35211 6.73605C9.99871 6.60686 10.6691 6.67241 11.2784 6.9244C11.8878 7.17639 12.4087 7.6035 12.7751 8.15165C13.1416 8.69981 13.3373 9.34437 13.3373 10.0037C13.3353 10.8856 12.9846 11.7309 12.3617 12.3552C11.7388 12.9795 10.8943 13.3321 10.0125 13.336ZM16.5371 4.65908C16.5371 4.89542 16.467 5.12644 16.3357 5.32295C16.2044 5.51945 16.0178 5.67261 15.7994 5.76305C15.5811 5.85349 15.3408 5.87716 15.109 5.83105C14.8772 5.78494 14.6643 5.67114 14.4972 5.50402C14.3301 5.33691 14.2163 5.12399 14.1702 4.8922C14.1241 4.66041 14.1477 4.42015 14.2382 4.20181C14.3286 3.98346 14.4818 3.79684 14.6783 3.66554C14.8748 3.53424 15.1058 3.46416 15.3421 3.46416C15.4991 3.46383 15.6547 3.49451 15.7998 3.55445C15.9449 3.61438 16.0768 3.70238 16.1878 3.81341C16.2988 3.92443 16.3868 4.05629 16.4468 4.20142C16.5067 4.34654 16.5374 4.50207 16.5371 4.65908ZM19.9319 5.87401C19.9647 4.31954 19.3846 2.81458 18.317 1.68427C17.1845 0.620092 15.681 0.0405804 14.1272 0.0693707C12.4773 -0.0231236 7.52763 -0.0231236 5.87773 0.0693707C4.32297 0.0391236 2.81816 0.618794 1.68549 1.68427C0.619474 2.8156 0.0396628 4.31987 0.0705914 5.87401C-0.0219029 7.52391 -0.0219029 12.4736 0.0705914 14.1235C0.037117 15.6788 0.617241 17.1848 1.68549 18.3157C2.8184 19.3792 4.32161 19.9586 5.87523 19.9306C7.52513 20.0231 12.4748 20.0231 14.1247 19.9306C15.6792 19.9634 17.1841 19.3834 18.3145 18.3157C19.3786 17.1832 19.9581 15.6797 19.9293 14.126C20.0218 12.4761 20.0218 7.5314 19.9293 5.87651L19.9319 5.87401ZM17.7995 15.9084C17.6298 16.3383 17.3736 16.7287 17.0468 17.0555C16.72 17.3824 16.3295 17.6386 15.8996 17.8083C13.9637 18.2023 11.9836 18.3343 10.0125 18.2007C8.03844 18.3297 6.05603 18.1943 4.11784 17.7983C3.68794 17.6286 3.29749 17.3724 2.97067 17.0455C2.64386 16.7187 2.38766 16.3283 2.21796 15.8984C1.81651 13.9609 1.67777 11.9782 1.80548 10.0037C1.67654 8.02972 1.81189 6.04731 2.20796 4.10912C2.37766 3.67922 2.63386 3.28877 2.96067 2.96195C3.28749 2.63514 3.67794 2.37894 4.10784 2.20924C6.04889 1.8094 8.035 1.67319 10.0125 1.80426C11.9865 1.67532 13.9689 1.81067 15.9071 2.20674C16.337 2.37644 16.7275 2.63264 17.0543 2.95945C17.3811 3.28627 17.6373 3.67672 17.807 4.10662C18.2051 6.04453 18.3405 8.02722 18.2095 10.0013C18.3393 11.9798 18.2014 13.9668 17.7995 15.9084Z" fill="#446381"/>
   </g>

   <!-- <svg width="48" height="8" viewBox="0 0 48 8" fill="none" xmlns="http://www.w3.org/2000/svg"> -->
   <g id="stars">
      <g clip-path="url(#clip0_39_2346)">
      <path d="M32.4603 7.01367C32.2966 7.09764 32.1108 6.95048 32.1439 6.7626L32.4959 4.75657L31.0018 3.33327C30.8622 3.2001 30.9347 2.95666 31.1218 2.93037L33.1991 2.63519L34.1253 0.800077C34.2089 0.634675 34.4349 0.634675 34.5185 0.800077L35.4447 2.63519L37.522 2.93037C37.709 2.95666 37.7815 3.2001 37.6416 3.33327L36.1479 4.75657L36.4999 6.7626C36.533 6.95048 36.3472 7.09764 36.1835 7.01367L34.3212 6.05688L32.4598 7.01367H32.4603Z" fill="#FFB359"/>
      </g>
      <g clip-path="url(#clip1_39_2346)">
      <path d="M22.2817 7.01367C22.118 7.09764 21.9322 6.95048 21.9653 6.7626L22.3173 4.75657L20.8232 3.33327C20.6836 3.2001 20.7562 2.95666 20.9432 2.93037L23.0205 2.63519L23.9467 0.800077C24.0303 0.634675 24.2563 0.634675 24.3399 0.800077L25.2661 2.63519L27.3434 2.93037C27.5304 2.95666 27.6029 3.2001 27.463 3.33327L25.9693 4.75657L26.3213 6.7626C26.3544 6.95048 26.1686 7.09764 26.0049 7.01367L24.1427 6.05688L22.2812 7.01367H22.2817Z" fill="#FFB359"/>
      </g>
      <g clip-path="url(#clip2_39_2346)">
      <path d="M12.1031 7.01367C11.9394 7.09764 11.7536 6.95048 11.7867 6.7626L12.1387 4.75657L10.6446 3.33327C10.505 3.2001 10.5776 2.95666 10.7646 2.93037L12.8419 2.63519L13.7681 0.800077C13.8517 0.634675 14.0777 0.634675 14.1613 0.800077L15.0875 2.63519L17.1648 2.93037C17.3518 2.95666 17.4244 3.2001 17.2844 3.33327L15.7907 4.75657L16.1427 6.7626C16.1758 6.95048 15.99 7.09764 15.8263 7.01367L13.9641 6.05688L12.1027 7.01367H12.1031Z" fill="#FFB359"/>
      </g>
      <g clip-path="url(#clip3_39_2346)">
      <path d="M1.92449 7.01367C1.76079 7.09764 1.57503 6.95048 1.60811 6.7626L1.96012 4.75657L0.465988 3.33327C0.326457 3.2001 0.398979 2.95666 0.58601 2.93037L2.66329 2.63519L3.58954 0.800077C3.67309 0.634675 3.89913 0.634675 3.98268 0.800077L4.90893 2.63519L6.98621 2.93037C7.17324 2.95666 7.24576 3.2001 7.10581 3.33327L5.6121 4.75657L5.96411 6.7626C5.99719 6.95048 5.81143 7.09764 5.64773 7.01367L3.78547 6.05688L1.92407 7.01367H1.92449Z" fill="#FFB359"/>
      </g>
      <g clip-path="url(#clip4_39_2346)">
      <path d="M42.6388 7.01367C42.4751 7.09764 42.2894 6.95048 42.3225 6.7626L42.6745 4.75657L41.1803 3.33327C41.0408 3.2001 41.1133 2.95666 41.3004 2.93037L43.3776 2.63519L44.3039 0.800077C44.3874 0.634675 44.6135 0.634675 44.697 0.800077L45.6233 2.63519L47.7006 2.93037C47.8876 2.95666 47.9601 3.2001 47.8202 3.33327L46.3265 4.75657L46.6785 6.7626C46.7115 6.95048 46.5258 7.09764 46.3621 7.01367L44.4998 6.05688L42.6384 7.01367H42.6388Z" fill="#FFB359"/>
      </g>
      <defs>
      <clipPath id="clip0_39_2346">
      <rect width="6.78571" height="6.78571" fill="white" transform="translate(30.9283 0.464111)"/>
      </clipPath>
      <clipPath id="clip1_39_2346">
      <rect width="6.78571" height="6.78571" fill="white" transform="translate(20.7498 0.464111)"/>
      </clipPath>
      <clipPath id="clip2_39_2346">
      <rect width="6.78571" height="6.78571" fill="white" transform="translate(10.5712 0.464111)"/>
      </clipPath>
      <clipPath id="clip3_39_2346">
      <rect width="6.78571" height="6.78571" fill="white" transform="translate(0.392578 0.464111)"/>
      </clipPath>
      <clipPath id="clip4_39_2346">
      <rect width="6.78571" height="6.78571" fill="white" transform="translate(41.1069 0.464111)"/>
      </clipPath>
      </defs>
   </g>
</svg>